<?xml version="1.0" encoding="UTF-8" standalone="no"?>
<!DOCTYPE svg PUBLIC "-//W3C//DTD SVG 1.1//EN" "http://www.w3.org/Graphics/SVG/1.1/DTD/svg11.dtd">
<svg width="500px" height="500px" version="1.1" xmlns="http://www.w3.org/2000/svg" xmlns:xlink="http://www.w3.org/1999/xlink" xml:space="preserve" xmlns:serif="http://www.serif.com/" style="fill-rule:evenodd;clip-rule:evenodd;stroke-linejoin:round;stroke-miterlimit:2;">
    <g transform="matrix(1,0,0,1,-1650,-550)">
        <g id="diagnostics" transform="matrix(0.416667,0,0,0.416667,1650,550)">
            <rect x="0" y="0" width="1200" height="1200" style="fill:none;"/>
            <path d="M600,9.909C925.68,9.909 1190.09,274.32 1190.09,600C1190.09,925.68 925.68,1190.09 600,1190.09C274.32,1190.09 9.909,925.68 9.909,600C9.909,274.32 274.32,9.909 600,9.909ZM600,62.709C303.461,62.709 62.709,303.461 62.709,600C62.709,896.539 303.461,1137.29 600,1137.29C896.539,1137.29 1137.29,896.539 1137.29,600C1137.29,303.461 896.539,62.709 600,62.709Z" style="fill:rgb(255,110,0);"/>
            <g transform="matrix(0.707929,0,0,0.707929,-2917.06,-41.4707)">
                <path d="M4512.58,1255.14C4448.81,1255.14 4396.92,1203.27 4396.92,1139.49L4396.92,528.38C4396.92,464.61 4448.8,412.73 4512.57,412.73L5423.64,412.683C5487.4,412.683 5539.29,464.559 5539.29,528.334L5539.24,1139.44C5539.24,1203.21 5487.36,1255.09 5423.59,1255.09L5116.29,1255.09C5116.29,1255.09 5132.1,1334.94 5132.1,1334.94L5175.72,1334.94C5193.57,1334.94 5208.03,1349.4 5208.03,1367.25C5208.03,1385.11 5193.57,1399.56 5175.72,1399.56L4760.46,1399.56C4742.6,1399.56 4728.15,1385.11 4728.15,1367.25C4728.15,1349.4 4742.61,1334.94 4760.46,1334.94L4804.07,1334.94L4819.88,1255.1L4512.58,1255.14ZM5066.27,1334.94L5050.45,1255.09C5050.45,1255.09 4885.79,1255.09 4885.79,1255.09C4885.79,1255.09 4869.97,1334.94 4869.97,1334.94L5066.27,1334.94ZM4512.58,477.304C4484.44,477.304 4461.55,500.192 4461.55,528.337C4461.55,528.337 4461.55,1065.42 4461.55,1065.42L5474.73,1065.42L5474.73,528.337C5474.73,500.192 5451.84,477.304 5423.69,477.304L4512.58,477.304ZM4990.57,977.189C4990.52,977.189 4990.47,977.189 4990.43,977.189C4977.01,977.189 4964.99,968.983 4960.24,956.496L4874.77,734.254L4820.4,838.994C4814.83,849.737 4803.76,856.434 4791.72,856.434L4585.24,856.377C4567.39,856.377 4552.93,841.918 4552.93,824.066C4552.93,806.215 4567.39,791.756 4585.24,791.756L4772.24,791.756L4850.61,640.739C4856.43,629.497 4868.65,622.635 4881.11,623.36C4893.77,624.089 4904.82,632.141 4909.42,643.996L4909.43,644.032L4989.82,853.082C4989.82,853.082 5046,700.152 5045.99,700.18C5050.36,688.195 5061.39,679.871 5074.18,679.061C5074.21,679.059 5074.24,679.057 5074.27,679.056C5086.91,678.332 5098.88,684.917 5104.84,696.185C5104.84,696.185 5152.95,787.033 5152.95,787.033L5351.23,787.033C5369.08,787.033 5383.54,801.492 5383.54,819.344C5383.54,837.196 5369.08,851.655 5351.23,851.655L5133.49,851.655C5121.56,851.655 5110.58,845.063 5104.94,834.5L5104.91,834.454L5081.59,790.404L5020.74,956.002C5016.13,968.619 5004.08,977.108 4990.65,977.189C4990.62,977.189 4990.6,977.189 4990.57,977.189ZM5423.5,1190.47C5451.66,1190.47 5474.73,1167.6 5474.73,1139.44C5474.73,1139.44 5474.73,1130.03 5474.73,1130.03C5474.73,1130.03 4461.55,1130.03 4461.55,1130.03L4461.55,1139.44C4461.55,1167.59 4484.44,1190.47 4512.58,1190.47L5423.5,1190.47Z" style="fill:rgb(255,110,0);fill-rule:nonzero;"/>
            </g>
            <g transform="matrix(0.943324,0.331874,-0.331874,0.943324,313.21,-177.515)">
                <path d="M787.693,920.936C790.535,933.906 788.734,947.934 781.578,960.329L714.766,1076.05C699.533,1102.43 665.746,1111.49 639.362,1096.26C612.978,1081.02 603.924,1047.23 619.157,1020.85L685.969,905.129C693.125,892.734 704.373,884.16 717.025,880.137C717.025,880.137 722.959,869.86 722.959,869.861C688.927,837.696 667.685,792.14 667.685,741.663C667.685,644.305 746.727,565.263 844.085,565.263C941.443,565.263 1020.49,644.305 1020.49,741.663C1020.49,839.021 941.443,918.063 844.085,918.063C826.542,918.063 809.593,915.494 793.595,910.715L787.693,920.936Z" style="fill:white;"/>
            </g>
            <g transform="matrix(2.26398,0.796498,-0.796498,2.26398,-8864.09,-3593.36)">
                <path d="M4399.03,456.304C4400.81,460.496 4400.68,465.448 4398.23,469.694L4370.39,517.912C4366.25,525.081 4357.07,527.541 4349.9,523.402C4342.73,519.263 4340.27,510.081 4344.41,502.912L4372.24,454.694C4374.7,450.448 4378.92,447.854 4383.44,447.304L4390.97,434.262C4375.59,422.272 4365.7,403.574 4365.7,382.584C4365.7,346.433 4395.05,317.084 4431.2,317.084C4467.35,317.084 4496.7,346.433 4496.7,382.584C4496.7,418.734 4467.35,448.084 4431.2,448.084C4422.48,448.084 4414.16,446.377 4406.55,443.28L4399.03,456.304ZM4431.2,335.084C4404.98,335.084 4383.7,356.368 4383.7,382.584C4383.7,408.8 4404.98,430.084 4431.2,430.084C4457.41,430.084 4478.7,408.8 4478.7,382.584C4478.7,356.368 4457.41,335.084 4431.2,335.084Z" style="fill:rgb(255,110,0);"/>
            </g>
        </g>
    </g>
</svg>
