<?xml version="1.0" encoding="UTF-8" standalone="no"?>
<!DOCTYPE svg PUBLIC "-//W3C//DTD SVG 1.1//EN" "http://www.w3.org/Graphics/SVG/1.1/DTD/svg11.dtd">
<svg width="490px" height="240px" version="1.1" xmlns="http://www.w3.org/2000/svg" xmlns:xlink="http://www.w3.org/1999/xlink" xml:space="preserve" xmlns:serif="http://www.serif.com/" style="fill-rule:evenodd;clip-rule:evenodd;stroke-linejoin:round;stroke-miterlimit:2;">
    <g id="Artboard1" transform="matrix(0.35,0,0,1.00418,0,0)">
        <rect x="0" y="0" width="1400" height="239" style="fill:none;"/>
        <g transform="matrix(3.02651,0,0,1,0,0)">
            <rect x="0" y="0" width="462.579" height="239" style="fill:rgb(51,51,51);"/>
        </g>
        <g transform="matrix(4.36985,0,0,1.52307,-364.675,-273.005)">
            <g transform="matrix(12,0,0,12,301.46,271.114)">
            </g>
            <text x="225.26px" y="271.114px" style="font-family:'FrutigerLTCom-Roman', 'Frutiger LT Com';font-size:12px;fill:white;">i<tspan x="228.476px 233.024px 243.572px 246.788px " y="271.114px 271.114px 271.114px 271.114px ">fm e</tspan>lectronic</text>
        </g>
        <g id="ifm-logo-white" serif:id="ifm logo white" transform="matrix(1.465,0,0,0.510613,88.771,-365.118)">
            <g>
                <g transform="matrix(4.10798,0,0,4.10798,399.009,948.652)">
                    <path d="M-85.812,0.915C-85.812,-18.653 -69.949,-34.516 -50.378,-34.516C-30.81,-34.516 -14.947,-18.653 -14.947,0.915C-14.947,20.485 -30.81,36.348 -50.378,36.348C-69.949,36.348 -85.812,20.485 -85.812,0.915ZM-84.111,0.915C-84.111,-17.713 -69.009,-32.816 -50.378,-32.816C-31.749,-32.816 -16.648,-17.713 -16.648,0.915C-16.648,19.545 -31.749,34.648 -50.378,34.648C-69.009,34.648 -84.111,19.545 -84.111,0.915" style="fill:white;"/>
                </g>
                <g transform="matrix(0.468684,0,0,0.468684,-294.441,804.781)">
                    <path d="M878.001,146.771L878.001,133.448C878.001,108.625 898.134,88.51 922.956,88.51L1050.2,88.51L1050.2,164.186L976.396,164.186C974.827,164.186 973.556,165.466 973.556,167.035L973.556,213.392C973.556,214.961 974.827,216.232 976.396,216.232L1050.2,216.232L1050.2,280.085L978.298,280.085C975.677,280.085 973.556,282.206 973.556,284.827L973.556,448.021L1031.26,448.021L1031.26,332.131C1031.26,322.989 1038.68,315.574 1047.84,315.574L1069.11,315.574C1078.25,315.574 1085.67,322.989 1085.67,332.131L1085.67,448.021L1143.38,448.021L1143.38,332.131C1143.38,322.989 1150.79,315.574 1159.95,315.574L1181.23,315.574C1190.37,315.574 1197.78,322.989 1197.78,332.131L1197.78,448.021L1255.49,448.021L1255.49,284.827C1255.49,282.206 1253.38,280.085 1250.76,280.085L1066.75,280.085L1066.75,261.17L1257.87,261.17C1267.01,261.17 1274.42,268.585 1274.42,277.727L1274.42,466.936L1178.85,466.936L1178.85,337.329C1178.85,335.76 1177.6,334.489 1176.03,334.489L1165.16,334.489C1163.58,334.489 1162.31,335.76 1162.31,337.329L1162.31,466.936L1066.75,466.936L1066.75,337.329C1066.75,335.76 1065.48,334.489 1063.93,334.489L1053.03,334.489C1051.45,334.489 1050.2,335.76 1050.2,337.329L1050.2,466.936L836.84,466.936L836.84,448.021L878.001,448.021L878.001,284.827C878.001,282.206 875.897,280.085 873.276,280.085L820.292,280.085L820.292,466.936L801.378,466.936L801.378,261.17L880.376,261.17C889.518,261.17 896.933,268.585 896.933,277.727L896.933,448.021L954.641,448.021L954.641,277.727C954.641,268.585 962.056,261.17 971.198,261.17L1031.26,261.17L1031.26,235.147L971.198,235.147C962.056,235.147 954.641,227.732 954.641,218.59L954.641,161.828C954.641,152.687 962.056,145.271 971.198,145.271L1031.26,145.271L1031.26,107.424L922.938,107.424C908.573,107.424 896.933,119.082 896.933,133.448L896.933,169.303C899.744,175.712 901.304,182.789 901.304,190.227C901.304,219.023 877.927,242.402 849.133,242.402C820.339,242.402 796.963,219.023 796.963,190.227C796.963,161.431 820.339,138.052 849.133,138.052C859.804,138.052 869.731,141.263 878.001,146.771ZM816.17,190.214C816.17,172.021 830.944,157.251 849.142,157.251C867.34,157.251 882.114,172.021 882.114,190.214C882.114,208.406 867.34,223.177 849.142,223.177C830.944,223.177 816.17,208.406 816.17,190.214Z" style="fill:white;"/>
                </g>
            </g>
        </g>
        <g transform="matrix(8.26901,0,0,2.88209,-1324.56,-69.0046)">
            <text x="233.421px" y="65.089px" style="font-family:'FrutigerLTCom-Black', 'Frutiger LT Com';font-weight:800;font-size:12px;fill:white;">v<tspan x="240.033px 243.321px 248.601px 251.889px 259.185px " y="65.089px 65.089px 65.089px 65.089px 65.089px ">ision</tspan></text>
            <g transform="matrix(12,0,0,12,314.181,65.0887)">
            </g>
            <text x="266.829px" y="65.089px" style="font-family:'FrutigerLTCom-Roman', 'Frutiger LT Com';font-size:12px;fill:white;">assistant</text>
        </g>
    </g>
</svg>
