<?xml version="1.0" encoding="UTF-8" standalone="no"?>
<!DOCTYPE svg PUBLIC "-//W3C//DTD SVG 1.1//EN"
 "http://www.w3.org/Graphics/SVG/1.1/DTD/svg11.dtd">
<!-- Generated by graphviz version 2.43.0 (0)
 -->
<!-- Title: ifm3d::Camera Pages: 1 -->
<svg width="246pt" height="140pt"
 viewBox="0.00 0.00 245.50 140.00" xmlns="http://www.w3.org/2000/svg" xmlns:xlink="http://www.w3.org/1999/xlink">
<g id="graph0" class="graph" transform="scale(1 1) rotate(0) translate(4 136)">
<title>ifm3d::Camera</title>
<!-- Node1 -->
<g id="node1" class="node">
<title>Node1</title>
<g id="a_node1"><a xlink:title=" ">
<polygon fill="#bfbfbf" stroke="black" points="74.5,-56.5 74.5,-75.5 163.5,-75.5 163.5,-56.5 74.5,-56.5"/>
<text text-anchor="middle" x="119" y="-63.5" font-family="Helvetica,sans-Serif" font-size="10.00">ifm3d::Camera</text>
</a>
</g>
</g>
<!-- Node3 -->
<g id="node3" class="node">
<title>Node3</title>
<g id="a_node3"><a xlink:href="classifm3d_1_1O3DCamera.html" target="_top" xlink:title=" ">
<polygon fill="none" stroke="black" points="0,-0.5 0,-19.5 110,-19.5 110,-0.5 0,-0.5"/>
<text text-anchor="middle" x="55" y="-7.5" font-family="Helvetica,sans-Serif" font-size="10.00">ifm3d::O3DCamera</text>
</a>
</g>
</g>
<!-- Node1&#45;&gt;Node3 -->
<g id="edge2" class="edge">
<title>Node1&#45;&gt;Node3</title>
<path fill="none" stroke="midnightblue" d="M101.01,-49.82C89.54,-40.15 75.09,-27.95 65.47,-19.83"/>
<polygon fill="midnightblue" stroke="midnightblue" points="98.82,-52.55 108.72,-56.32 103.33,-47.2 98.82,-52.55"/>
</g>
<!-- Node4 -->
<g id="node4" class="node">
<title>Node4</title>
<g id="a_node4"><a xlink:href="classifm3d_1_1O3XCamera.html" target="_top" xlink:title=" ">
<polygon fill="none" stroke="black" points="128.5,-0.5 128.5,-19.5 237.5,-19.5 237.5,-0.5 128.5,-0.5"/>
<text text-anchor="middle" x="183" y="-7.5" font-family="Helvetica,sans-Serif" font-size="10.00">ifm3d::O3XCamera</text>
</a>
</g>
</g>
<!-- Node1&#45;&gt;Node4 -->
<g id="edge3" class="edge">
<title>Node1&#45;&gt;Node4</title>
<path fill="none" stroke="midnightblue" d="M136.99,-49.82C148.46,-40.15 162.91,-27.95 172.53,-19.83"/>
<polygon fill="midnightblue" stroke="midnightblue" points="134.67,-47.2 129.28,-56.32 139.18,-52.55 134.67,-47.2"/>
</g>
<!-- Node2 -->
<g id="node2" class="node">
<title>Node2</title>
<g id="a_node2"><a xlink:href="classifm3d_1_1CameraBase.html" target="_top" xlink:title=" ">
<polygon fill="none" stroke="black" points="62.5,-112.5 62.5,-131.5 175.5,-131.5 175.5,-112.5 62.5,-112.5"/>
<text text-anchor="middle" x="119" y="-119.5" font-family="Helvetica,sans-Serif" font-size="10.00">ifm3d::CameraBase</text>
</a>
</g>
</g>
<!-- Node2&#45;&gt;Node1 -->
<g id="edge1" class="edge">
<title>Node2&#45;&gt;Node1</title>
<path fill="none" stroke="midnightblue" d="M119,-101.8C119,-92.91 119,-82.78 119,-75.75"/>
<polygon fill="midnightblue" stroke="midnightblue" points="115.5,-102.08 119,-112.08 122.5,-102.08 115.5,-102.08"/>
</g>
</g>
</svg>
