<?xml version="1.0" encoding="UTF-8" standalone="no"?>
<!DOCTYPE svg PUBLIC "-//W3C//DTD SVG 1.1//EN"
 "http://www.w3.org/Graphics/SVG/1.1/DTD/svg11.dtd">
<!-- Generated by graphviz version 2.43.0 (0)
 -->
<!-- Title: Graphical Class Hierarchy Pages: 1 -->
<svg width="413pt" height="85pt"
 viewBox="0.00 0.00 413.00 85.00" xmlns="http://www.w3.org/2000/svg" xmlns:xlink="http://www.w3.org/1999/xlink">
<g id="graph0" class="graph" transform="scale(1 1) rotate(0) translate(4 81)">
<title>Graphical Class Hierarchy</title>
<!-- Node0 -->
<g id="node1" class="node">
<title>Node0</title>
<g id="a_node1"><a xlink:href="classifm3d_1_1CameraBase.html" target="_top" xlink:title=" ">
<polygon fill="none" stroke="black" points="0,-19.5 0,-38.5 113,-38.5 113,-19.5 0,-19.5"/>
<text text-anchor="middle" x="56.5" y="-26.5" font-family="Helvetica,sans-Serif" font-size="10.00">ifm3d::CameraBase</text>
</a>
</g>
</g>
<!-- Node1 -->
<g id="node2" class="node">
<title>Node1</title>
<g id="a_node2"><a xlink:href="classifm3d_1_1Camera.html" target="_top" xlink:title=" ">
<polygon fill="none" stroke="black" points="159.5,-38.5 159.5,-57.5 248.5,-57.5 248.5,-38.5 159.5,-38.5"/>
<text text-anchor="middle" x="204" y="-45.5" font-family="Helvetica,sans-Serif" font-size="10.00">ifm3d::Camera</text>
</a>
</g>
</g>
<!-- Node0&#45;&gt;Node1 -->
<g id="edge1" class="edge">
<title>Node0&#45;&gt;Node1</title>
<path fill="none" stroke="midnightblue" d="M123.45,-37.61C135.6,-39.2 148,-40.82 159.28,-42.29"/>
<polygon fill="midnightblue" stroke="midnightblue" points="123.71,-34.12 113.34,-36.29 122.8,-41.06 123.71,-34.12"/>
</g>
<!-- Node4 -->
<g id="node5" class="node">
<title>Node4</title>
<g id="a_node5"><a xlink:href="classifm3d_1_1O3RCamera.html" target="_top" xlink:title=" ">
<polygon fill="none" stroke="black" points="149,-0.5 149,-19.5 259,-19.5 259,-0.5 149,-0.5"/>
<text text-anchor="middle" x="204" y="-7.5" font-family="Helvetica,sans-Serif" font-size="10.00">ifm3d::O3RCamera</text>
</a>
</g>
</g>
<!-- Node0&#45;&gt;Node4 -->
<g id="edge4" class="edge">
<title>Node0&#45;&gt;Node4</title>
<path fill="none" stroke="midnightblue" d="M123.33,-20.4C131.91,-19.28 140.63,-18.14 148.99,-17.05"/>
<polygon fill="midnightblue" stroke="midnightblue" points="122.8,-16.94 113.34,-21.71 123.71,-23.88 122.8,-16.94"/>
</g>
<!-- Node2 -->
<g id="node3" class="node">
<title>Node2</title>
<g id="a_node3"><a xlink:href="classifm3d_1_1O3DCamera.html" target="_top" xlink:title=" ">
<polygon fill="none" stroke="black" points="295,-57.5 295,-76.5 405,-76.5 405,-57.5 295,-57.5"/>
<text text-anchor="middle" x="350" y="-64.5" font-family="Helvetica,sans-Serif" font-size="10.00">ifm3d::O3DCamera</text>
</a>
</g>
</g>
<!-- Node1&#45;&gt;Node2 -->
<g id="edge2" class="edge">
<title>Node1&#45;&gt;Node2</title>
<path fill="none" stroke="midnightblue" d="M258.75,-55.09C270.54,-56.65 283.04,-58.3 294.85,-59.86"/>
<polygon fill="midnightblue" stroke="midnightblue" points="258.97,-51.59 248.6,-53.75 258.05,-58.53 258.97,-51.59"/>
</g>
<!-- Node3 -->
<g id="node4" class="node">
<title>Node3</title>
<g id="a_node4"><a xlink:href="classifm3d_1_1O3XCamera.html" target="_top" xlink:title=" ">
<polygon fill="none" stroke="black" points="295.5,-19.5 295.5,-38.5 404.5,-38.5 404.5,-19.5 295.5,-19.5"/>
<text text-anchor="middle" x="350" y="-26.5" font-family="Helvetica,sans-Serif" font-size="10.00">ifm3d::O3XCamera</text>
</a>
</g>
</g>
<!-- Node1&#45;&gt;Node3 -->
<g id="edge3" class="edge">
<title>Node1&#45;&gt;Node3</title>
<path fill="none" stroke="midnightblue" d="M258.87,-40.89C270.8,-39.32 283.45,-37.65 295.37,-36.08"/>
<polygon fill="midnightblue" stroke="midnightblue" points="258.05,-37.47 248.6,-42.25 258.97,-44.41 258.05,-37.47"/>
</g>
</g>
</svg>
