<?xml version="1.0" encoding="UTF-8" standalone="no"?>
<svg
   id="Layer_2"
   viewBox="0 0 1679.82 144"
   version="1.1"
   sodipodi:docname="banner.svg"
   inkscape:version="1.3.1 (9b9bdc1480, 2023-11-25, custom)"
   xmlns:inkscape="http://www.inkscape.org/namespaces/inkscape"
   xmlns:sodipodi="http://sodipodi.sourceforge.net/DTD/sodipodi-0.dtd"
   xmlns="http://www.w3.org/2000/svg"
   xmlns:svg="http://www.w3.org/2000/svg">
  <sodipodi:namedview
     id="namedview8"
     pagecolor="#ffffff"
     bordercolor="#666666"
     borderopacity="1.0"
     inkscape:showpageshadow="2"
     inkscape:pageopacity="0.0"
     inkscape:pagecheckerboard="0"
     inkscape:deskcolor="#d1d1d1"
     inkscape:zoom="1.7311379"
     inkscape:cx="339.08333"
     inkscape:cy="126.79521"
     inkscape:window-width="1920"
     inkscape:window-height="1021"
     inkscape:window-x="0"
     inkscape:window-y="0"
     inkscape:window-maximized="1"
     inkscape:current-layer="Layer_1-2" />
  <defs
     id="defs4">
    <style
       id="style1">.cls-1{fill:url(#linear-gradient-2);}.cls-2{stroke:#fff;stroke-linecap:round;stroke-linejoin:round;stroke-width:4px;}.cls-2,.cls-3{font-family:Arial-BoldItalicMT, Arial;font-size:24.08px;font-style:italic;font-weight:700;}.cls-4{fill:#fff;}.cls-5{fill:none;}.cls-6{fill:#ff6e00;fill-rule:evenodd;}.cls-7{fill:url(#linear-gradient);}</style>
    <linearGradient
       id="linear-gradient"
       x1="127.76"
       y1="38.3"
       x2="1679.82"
       y2="38.3"
       gradientUnits="userSpaceOnUse">
      <stop
         offset="0"
         stop-color="#ff6e00"
         id="stop1" />
      <stop
         offset="1"
         stop-color="#fff"
         stop-opacity="0"
         id="stop2" />
    </linearGradient>
    <linearGradient
       id="linear-gradient-2"
       x1="128.43"
       y1="93.85"
       x2="1679.82"
       y2="93.85"
       gradientUnits="userSpaceOnUse">
      <stop
         offset="0"
         stop-color="#b3b3b3"
         id="stop3" />
      <stop
         offset="1"
         stop-color="#fff"
         stop-opacity="0"
         id="stop4" />
    </linearGradient>
  </defs>
  <g
     id="Layer_1-2">
    <path
       class="cls-7"
       d="M1679.82,16.26v44.08H156.62c-3.23-18.36-13.94-34.13-28.86-44.08h1552.06Z"
       id="path4" />
    <path
       class="cls-1"
       d="M1679.82,60.34v67.02H128.43c17.64-12.06,29.21-32.34,29.21-55.32,0-3.99-.35-7.9-1.02-11.7h1523.2Z"
       id="path5" />
    <g
       id="news">
      <path
         class="cls-6"
         d="M90.54,16.26c-30.66,0-55.55,24.89-55.55,55.55s24.89,55.55,55.55,55.55,55.55-24.89,55.55-55.55-24.89-55.55-55.55-55.55Z"
         id="path6" />
      <path
         class="cls-4"
         d="M91.69,38.34l22.76,48.82c.9,1.94-.62,4.13-2.75,3.95-11.29-.93-21.63-.8-31.01.37l-1.4.19c.85,1.88,1.77,3.72,2.77,5.52.82,1.49,1.51,2.6,2.27,3.71.63.92,1.14,1.61,2.67,3.64,2.81,3.72,1.45,9.02-2.67,11.87-.28.19-.57.37-.87.54-4.35,2.41-9.74,1.38-11.97-2.65-.17-.3-.31-.61-.43-.92-.91-2.37-1.22-3.17-1.67-4.19-.54-1.23-1.12-2.4-1.94-3.89-1.69-3.04-3.59-5.97-5.7-8.78-.21-.28-.36-.59-.45-.92-2.81.84-5.61,1.79-8.4,2.85-1.36.52-2.89-.11-3.51-1.43l-7.06-15.15c-.63-1.34-.09-2.94,1.22-3.64,7.91-4.21,15.62-9.81,23.15-16.8,7.55-7.01,14.28-14.83,20.19-23.48,1.22-1.78,3.91-1.56,4.82.4h0ZM66.84,94.03l.31.43c1.89,2.62,3.61,5.33,5.16,8.13.91,1.64,1.57,2.96,2.18,4.36.49,1.13.83,1.98,1.77,4.43.03.07.06.14.1.21.62,1.12,2.56,1.49,4.4.48.14-.08.28-.16.41-.25,1.68-1.16,2.14-2.93,1.39-3.93-1.58-2.1-2.12-2.83-2.82-3.85-.86-1.26-1.63-2.52-2.54-4.16-1.31-2.37-2.5-4.8-3.58-7.3-2.25.42-4.5.91-6.75,1.47l-.02-.03ZM119.74,70.05l.27.09,13.86,5.36c1.43.55,2.15,2.17,1.59,3.6-.52,1.35-1.97,2.06-3.33,1.68l-.27-.09-13.86-5.36c-1.44-.55-2.15-2.17-1.59-3.6.52-1.35,1.97-2.06,3.33-1.68h0ZM88.67,45.04c-5.45,7.44-11.52,14.26-18.2,20.47-4.36,4.05-8.8,7.66-13.31,10.84l6.02,12.91c5.57-1.5,11.17-2.6,16.82-3.31,8.44-1.05,17.58-1.3,27.41-.73l-18.74-40.18ZM52.47,79.47c-1.33.84-2.67,1.64-4.01,2.4l4.88,10.47c1.47-.53,2.95-1.02,4.43-1.49l-5.3-11.37ZM129.28,46.43c1.39-.65,3.05-.05,3.7,1.35s.05,3.05-1.35,3.7l-13.47,6.28c-1.39.65-3.05.05-3.7-1.35s-.05-3.05,1.35-3.7l13.47-6.28ZM111.19,27.03c1.46.5,2.23,2.08,1.73,3.54l-4.81,14.06c-.5,1.46-2.08,2.23-3.54,1.73-1.46-.5-2.23-2.08-1.73-3.54l4.81-14.06c.5-1.46,2.08-2.23,3.54-1.73h0Z"
         id="path7" />
    </g>
    <text
       class="cls-2"
       transform="translate(192.88,45.62)"
       id="text7"><tspan
         x="0"
         y="0"
         id="tspan7">News</tspan></text>
    <text
       class="cls-3"
       id="text8"
       x="192.88"
       y="45.619999"><tspan
         x="192.88"
         y="45.619999"
         id="tspan8">News</tspan></text>
    <rect
       class="cls-5"
       width="1672"
       height="144"
       id="rect8" />
  </g>
</svg>
