<?xml version="1.0" encoding="UTF-8" standalone="no"?>
<!DOCTYPE svg PUBLIC "-//W3C//DTD SVG 1.1//EN" "http://www.w3.org/Graphics/SVG/1.1/DTD/svg11.dtd">
<svg width="500px" height="500px" version="1.1" xmlns="http://www.w3.org/2000/svg" xmlns:xlink="http://www.w3.org/1999/xlink" xml:space="preserve" xmlns:serif="http://www.serif.com/" style="fill-rule:evenodd;clip-rule:evenodd;stroke-linejoin:round;stroke-miterlimit:2;">
    <g transform="matrix(1,0,0,1,-550,-550)">
        <g id="calibration" transform="matrix(0.416667,0,0,0.416667,550,550)">
            <rect x="0" y="0" width="1200" height="1200" style="fill:none;"/>
            <g transform="matrix(2.4,0,0,2.4,-6985.45,-49.3439)">
                <path d="M2933.62,331.079C2928.47,311.768 2925.73,291.481 2925.73,270.56C2925.73,256.744 2926.93,243.205 2929.22,230.041L3009.05,230.041L3009.05,331.079L2933.62,331.079ZM3110.09,129.004L3110.09,41.145C3126.36,37.572 3143.26,35.689 3160.61,35.689C3177.95,35.689 3194.85,37.572 3211.12,41.145L3211.12,129.004L3110.09,129.004ZM3009.05,230.041L3009.05,129.004L3110.09,129.004L3110.09,230.041L3009.05,230.041ZM3312.16,230.041L3391.99,230.041C3394.28,243.205 3395.48,256.744 3395.48,270.56C3395.48,291.481 3392.73,311.768 3387.59,331.079L3312.16,331.079L3312.16,230.041ZM3211.12,129.004L3312.16,129.004L3312.16,230.041L3211.12,230.041L3211.12,129.004ZM3211.12,432.116L3211.12,499.975C3194.85,503.548 3177.95,505.431 3160.61,505.431C3143.26,505.431 3126.36,503.548 3110.09,499.975L3110.09,432.116L3211.12,432.116ZM3312.16,331.079L3312.16,432.116L3211.12,432.116L3211.12,331.079L3312.16,331.079ZM3110.09,432.116L3009.05,432.116L3009.05,331.079L3110.09,331.079L3110.09,432.116Z" style="fill:rgb(255,110,0);"/>
            </g>
            <g transform="matrix(2.28748,0,0,2.28748,-6650.5,28.1302)">
                <path d="M3169.46,43.961L3173.83,44.388L3177.99,45.647L3181.78,47.674L3185.08,50.382L3187.78,53.681L3189.81,57.469L3191.07,61.625L3191.5,65.997C3191.5,65.997 3191.5,81.232 3191.5,81.232C3220.51,90.572 3241.64,117.678 3241.66,149.665C3241.81,169.113 3234.2,187.245 3220.76,200.691C3219.73,201.717 3218.65,202.689 3217.53,203.627C3217.53,203.627 3255.87,369.916 3255.87,369.879C3258.21,379.747 3257.64,390.102 3254.51,399.808C3254.49,399.852 3254.48,399.896 3254.47,399.94L3240.73,441.114C3240.65,441.374 3240.55,441.631 3240.45,441.885L3238.06,446.441L3235.42,449.637L3231.83,452.539L3227.84,454.575L3223.67,455.746L3219.5,456.117C3219.22,456.117 3218.94,456.108 3218.66,456.091L3211.77,454.551L3205.84,451.039L3201.31,445.938L3198.52,439.629C3198.49,439.546 3198.47,439.464 3198.45,439.381L3177.63,355.682L3161.65,355.682C3161.65,355.682 3140.85,438.823 3140.77,439.116L3137.96,445.9L3133.24,451.203L3127.23,454.649L3120.5,456.104L3113.22,455.323L3106.77,452.276L3101.72,447.39C3101.72,447.39 3098.46,441.148 3098.45,441.127C3098.45,441.127 3084.73,400.003 3084.74,400.022C3081.68,391.106 3081.04,381.412 3082.83,372.147L3081.57,372.024L3077.41,370.765L3073.63,368.739L3070.33,366.031L3067.62,362.732L3065.59,358.943L3064.33,354.787L3063.91,350.416L3063.91,317.052L3064.33,312.68L3065.59,308.524L3067.62,304.736L3070.33,301.437L3073.63,298.728L3077.41,296.702L3081.57,295.443L3085.94,295.016L3090.31,295.443L3094.47,296.702L3098.26,298.728L3099.48,299.734C3105.97,271.575 3121.68,203.424 3121.68,203.424C3106.5,189.923 3097.38,170.339 3097.37,149.664C3097.26,118.616 3119.02,91.001 3147.54,81.296L3147.54,65.89L3147.97,61.519L3149.22,57.363L3151.25,53.574L3153.96,50.275L3157.26,47.567L3161.05,45.541L3165.2,44.282L3169.46,43.961Z" style="fill:white;"/>
            </g>
            <g transform="matrix(2.28748,0,0,2.28748,-6650.5,28.1302)">
                <path d="M3169.57,57.493C3164.85,57.493 3161.18,61.165 3161.18,65.89L3161.18,91.911C3133.61,96.293 3110.9,121.138 3111.01,149.644C3111.01,169.055 3120.95,187.268 3136.92,198.026L3107.58,325.326L3094.34,325.326L3094.34,317.052C3094.34,312.326 3090.67,308.655 3085.94,308.655C3081.22,308.655 3077.55,312.326 3077.55,317.052L3077.55,350.416C3077.55,355.141 3081.22,358.812 3085.94,358.812C3088.32,358.812 3090.43,357.87 3091.85,356.45C3093.27,355.03 3094.34,352.79 3094.22,350.538L3094.22,342.264L3103.69,342.264L3096.59,373.033C3094.82,380.486 3095.17,388.406 3097.65,395.638L3111.39,436.812C3112.56,440.361 3115.88,442.724 3119.66,442.491C3123.44,442.258 3126.64,439.773 3127.47,436.102L3151.01,342.043L3187.68,342.043C3187.68,342.043 3188.03,341.932 3188.26,341.921L3211.69,436.089C3212.64,439.638 3215.72,442.245 3219.5,442.478C3221.87,442.478 3224.11,441.657 3225.78,439.993C3226.72,439.05 3227.32,437.985 3227.79,436.798L3241.53,395.624C3243.89,388.293 3244.37,380.473 3242.59,373.019L3202.24,198.034C3205.43,195.794 3208.5,193.653 3211.11,191.046C3221.99,180.165 3228.15,165.49 3228.03,149.751C3228.03,120.402 3206.13,96.154 3177.86,92.018L3177.86,65.997C3177.86,61.272 3174.44,57.493 3169.72,57.493L3169.57,57.493ZM3155.14,325.106L3169.58,267.605L3184.03,325.106L3155.14,325.106ZM3226.25,376.34C3227.2,380.832 3227.09,385.446 3225.66,389.95L3220.93,403.915L3177.74,231.059C3176.79,227.277 3173.48,224.67 3169.57,224.781C3167.2,224.781 3165.19,225.613 3163.66,227.144C3162.59,228.208 3161.76,229.506 3161.42,231.048L3118.22,403.903L3113.49,389.939C3111.95,385.557 3111.71,380.821 3112.9,376.329L3157.27,184.307C3158.57,178.506 3163.78,174.49 3169.69,174.479C3175.62,174.479 3180.69,178.628 3182.11,184.307C3182.11,184.307 3226.26,376.277 3226.25,376.34ZM3152.89,149.423C3152.89,140.439 3160.7,132.63 3169.57,132.741C3178.8,132.741 3186.26,140.194 3186.38,149.545C3186.38,153.804 3184.72,157.831 3181.87,160.903C3178.09,159.25 3174.07,157.819 3169.68,157.941C3165.18,157.941 3161.29,159.239 3157.49,160.903C3154.53,157.941 3152.99,153.804 3152.99,149.545L3152.89,149.423ZM3211.34,149.411C3211.34,161.235 3206.37,172.127 3197.85,179.936C3197.02,176.974 3195.96,174.257 3194.3,171.661C3199.74,165.505 3202.82,157.708 3202.82,149.411C3202.82,140.427 3199.38,132.019 3192.99,125.63C3186.6,119.241 3178.2,115.814 3169.33,115.924C3151.58,115.924 3135.85,131.42 3135.84,149.412C3135.84,157.686 3138.92,165.506 3144.36,171.662C3142.83,174.147 3141.63,176.986 3140.92,179.826C3132.53,171.895 3127.44,161.125 3127.44,149.301C3127.33,126.94 3146.85,107.417 3169.32,107.418C3192.28,107.418 3211.09,126.231 3211.2,149.301L3211.34,149.411Z" style="fill:rgb(251,110,8);fill-rule:nonzero;"/>
            </g>
            <path d="M600,9.909C925.68,9.909 1190.09,274.32 1190.09,600C1190.09,925.68 925.68,1190.09 600,1190.09C274.32,1190.09 9.909,925.68 9.909,600C9.909,274.32 274.32,9.909 600,9.909ZM600,62.709C303.461,62.709 62.709,303.461 62.709,600C62.709,896.539 303.461,1137.29 600,1137.29C896.539,1137.29 1137.29,896.539 1137.29,600C1137.29,303.461 896.539,62.709 600,62.709Z" style="fill:rgb(255,110,0);"/>
        </g>
    </g>
</svg>
