<?xml version="1.0" encoding="UTF-8" standalone="no"?>
<!DOCTYPE svg PUBLIC "-//W3C//DTD SVG 1.1//EN" "http://www.w3.org/Graphics/SVG/1.1/DTD/svg11.dtd">
<svg width="500px" height="500px" version="1.1" xmlns="http://www.w3.org/2000/svg" xmlns:xlink="http://www.w3.org/1999/xlink" xml:space="preserve" xmlns:serif="http://www.serif.com/" style="fill-rule:evenodd;clip-rule:evenodd;stroke-linejoin:round;stroke-miterlimit:2;">
    <g transform="matrix(1,0,0,1,-550,0)">
        <g id="unboxing" transform="matrix(0.416667,0,0,0.416667,550,0)">
            <rect x="0" y="0" width="1200" height="1200" style="fill:none;"/>
            <path d="M600,9.909C925.68,9.909 1190.09,274.32 1190.09,600C1190.09,925.68 925.68,1190.09 600,1190.09C274.32,1190.09 9.909,925.68 9.909,600C9.909,274.32 274.32,9.909 600,9.909ZM600,62.709C303.461,62.709 62.709,303.461 62.709,600C62.709,896.539 303.461,1137.29 600,1137.29C896.539,1137.29 1137.29,896.539 1137.29,600C1137.29,303.461 896.539,62.709 600,62.709Z" style="fill:rgb(255,110,0);"/>
            <g transform="matrix(0.821133,0,0,0.821133,107.362,113.565)">
                <path d="M610.157,408.688C621.524,413.226 862.447,481.374 962.399,511.514C983.197,517.785 998.044,522.456 1003.78,524.619C1005.35,525.211 1006.47,525.712 1007.14,526.058L1009.88,527.914L1007.73,526.407C1011.27,528.328 1014.43,531.008 1016.97,534.237C1017.03,534.316 1017.09,534.396 1017.15,534.476L1108.98,657.756C1108.99,657.776 1109.01,657.795 1109.02,657.815C1114.71,665.553 1116.41,675.58 1113.61,684.834C1113.59,684.871 1113.58,684.908 1113.57,684.944C1110.69,694.099 1103.72,701.427 1094.64,704.681C1094.6,704.694 1094.57,704.708 1094.53,704.721L1023.12,729.466L1023.12,949.144C1023.12,961.551 1015.59,972.742 1004.06,977.368C1004.06,977.368 620.693,1132.95 620.693,1132.95C605.252,1139.35 588.539,1138.2 576.984,1132.84C576.984,1132.84 193.306,974.872 193.306,974.872C181.78,970.214 174.224,959.033 174.224,946.656L174.269,732.475L105.72,709.639L105.69,709.629C96.652,706.591 89.559,699.405 86.521,690.367C86.512,690.339 86.503,690.311 86.493,690.283C83.538,681.264 84.911,671.337 90.291,663.456C90.314,663.422 90.337,663.389 90.361,663.355L179.799,535.245C180.119,534.786 180.473,534.35 180.856,533.942C181.679,533.063 182.503,532.236 183.375,531.412C186.767,528.004 190.93,525.315 195.509,523.67C195.724,523.592 195.941,523.521 196.16,523.457L590.14,407.437C590.177,407.426 590.214,407.415 590.251,407.405C595.811,405.827 601.67,405.827 607.229,407.405C608.281,407.704 609.263,408.139 610.157,408.688ZM615.162,422.294C615.226,422.094 615.286,421.891 615.34,421.686C615.607,420.677 615.733,419.659 615.729,418.653C615.728,419.185 615.692,419.723 615.617,420.263C615.519,420.962 615.362,421.639 615.149,422.29C615.153,422.291 615.158,422.293 615.162,422.294ZM593.372,418.673C592.735,418.22 592.346,418.149 592.346,418.653C592.346,418.761 592.347,418.868 592.349,418.974L593.372,418.673ZM235.092,752.771L235.085,926.028L568.282,1059.36L568.282,748.474L508.927,822.991C501.005,832.969 487.605,836.944 475.495,832.907L235.092,752.771ZM598.74,468.378L315.54,551.776L598.779,629.921L881.901,551.778L598.74,468.378ZM217.336,587.828C217.336,587.828 163.623,664.777 163.624,664.777C228.253,686.311 417.096,749.259 474.584,768.434L546.167,678.563L217.336,587.828ZM724.938,768.295L1035.34,660.793C1035.34,660.793 980.808,587.619 980.808,587.619L651.819,678.418L724.938,768.295ZM962.231,928.58C962.231,928.58 962.227,750.523 962.227,750.523L724.715,832.803C724.693,832.811 724.67,832.819 724.648,832.826C712.571,836.928 699.207,833.113 691.155,823.238L691.148,823.229L629.173,747.07L629.173,1062.96L962.231,928.58Z" style="fill:rgb(255,110,0);fill-rule:nonzero;"/>
            </g>
            <g transform="matrix(1.22867,0,0,1.22867,139.996,18.3575)">
                <path d="M493.682,283.88L493.635,283.88L489.561,283.88L489.561,410.44L488.459,421.297L485.287,431.477L480.297,440.644L473.733,448.583L465.789,455.129L456.634,460.097L446.48,463.253L435.651,464.35L313.171,464.35L302.346,463.256L292.179,460.101L283.006,455.125L275.049,448.561L268.486,440.605L263.509,431.432L260.355,421.264L259.261,410.44L259.261,283.88L255.137,283.88C254.986,283.88 254.834,283.879 254.682,283.877L239.545,281.507L225.914,275.125L214.574,265.226L206.318,252.378L201.95,237.658L201.872,222.624L205.908,208.21L213.905,195.248C214.033,195.095 214.162,194.942 214.292,194.791L331.572,58.611C331.881,58.253 332.197,57.901 332.519,57.555L342.769,48.919L354.649,43.001L367.642,40.036L379.155,40.227L387.832,41.158L398.698,44.76L408.604,50.607L417.168,58.574L417.2,58.611L534.48,194.791C534.573,194.898 534.664,195.006 534.756,195.115L542.868,208.174L546.926,222.682L546.818,237.73L542.484,252.278L534.262,265.176L522.904,275.108L509.306,281.485L494.223,283.876C494.042,283.878 493.862,283.88 493.682,283.88Z" style="fill:white;"/>
            </g>
            <g transform="matrix(1.22867,0,0,1.22867,139.996,18.3575)">
                <path d="M493.682,248.72L493.635,248.72L454.401,248.72L454.401,410.44C454.401,420.799 445.963,429.19 435.651,429.19L313.171,429.19C302.812,429.19 294.421,420.799 294.421,410.44L294.421,248.72L255.137,248.72C247.872,248.626 241.309,244.36 238.262,237.704C235.215,231.094 236.294,223.313 240.934,217.735L358.214,81.555C362.855,76.586 369.605,74.149 376.355,75.086C381.793,75.086 386.996,77.43 390.558,81.555L507.838,217.735C512.526,223.313 513.557,231.095 510.51,237.704C507.517,244.346 500.929,248.608 493.682,248.72Z" style="fill:rgb(255,110,0);fill-rule:nonzero;"/>
            </g>
        </g>
    </g>
</svg>
