<svg width="112" height="112" xmlns="http://www.w3.org/2000/svg" xmlns:xlink="http://www.w3.org/1999/xlink" xml:space="preserve" overflow="hidden"><g transform="translate(-289 -191)"><path d="M345 196.013C351.886 196.013 358.562 197.361 364.845 200.017 370.916 202.585 376.369 206.262 381.053 210.947 385.738 215.631 389.415 221.084 391.983 227.155 394.639 233.438 395.987 240.115 395.987 247 395.987 253.885 394.639 260.562 391.983 266.845 389.415 272.916 385.738 278.369 381.053 283.053 376.369 287.738 370.916 291.415 364.845 293.983 358.562 296.639 351.885 297.987 345 297.987 338.115 297.987 331.438 296.639 325.155 293.983 319.084 291.415 313.631 287.738 308.947 283.053 304.262 278.369 300.585 272.916 298.017 266.845 295.361 260.562 294.013 253.885 294.013 247 294.013 240.115 295.361 233.438 298.017 227.155 300.585 221.084 304.262 215.631 308.947 210.947 313.631 206.262 319.084 202.585 325.155 200.017 331.438 197.361 338.115 196.013 345 196.013M345 191C314.073 191 289 216.073 289 247 289 277.927 314.073 303 345 303 375.927 303 401 277.927 401 247 401 216.073 375.927 191 345 191L345 191Z" fill="#FF6E00"/><path d="M352.89 210.987C352.83 210.998 352.77 211.014 352.715 211.03 352.329 211.111 351.996 211.35 351.796 211.688 351.6 212.032 351.551 212.44 351.671 212.816L368.398 267.177C368.61 267.863 369.308 268.277 370.01 268.135L383.948 265.348C384.498 265.332 384.993 264.994 385.2 264.483 385.406 263.972 385.297 263.383 384.912 262.987 384.525 262.588 383.942 262.458 383.425 262.648L370.706 265.175 354.371 212.034C354.202 211.369 353.576 210.922 352.89 210.988ZM322.223 220.787C321.499 220.848 320.949 221.458 320.96 222.181L320.96 241.652 319.392 241.652C317.165 241.652 315.341 243.52 315.341 245.747L315.341 267.352C315.341 268.425 315.783 269.389 316.43 270.096 316.539 270.238 316.669 270.352 316.822 270.444 317.252 274.648 320.83 277.936 325.142 277.936 329.455 277.936 332.694 274.941 333.375 271.01L341.825 271.01C343.894 275.11 348.129 277.936 353.019 277.936 359.928 277.936 365.564 272.3 365.564 265.391 365.564 260.502 362.738 256.265 358.638 254.197L358.638 251.017C358.638 248.79 356.813 246.967 354.587 246.967L352.976 246.967C352.965 246.924 352.949 246.88 352.933 246.837L344.57 221.747C344.391 221.176 343.863 220.789 343.264 220.789L322.225 220.789ZM323.749 223.575 342.262 223.575 350.059 246.966 343.568 246.966 341.477 244.832C341.455 244.804 341.411 244.771 341.389 244.744 340.861 244.113 340.305 243.384 339.56 242.784 338.781 242.158 337.769 241.651 336.554 241.651L323.747 241.651 323.747 223.573ZM319.393 244.527 336.556 244.527C337.024 244.527 337.323 244.684 337.776 245.049 338.228 245.415 338.74 245.992 339.3 246.661 339.327 246.694 339.354 246.721 339.387 246.748L342.001 249.405C342.273 249.661 342.633 249.803 343.003 249.797L354.59 249.797C355.249 249.797 355.766 250.326 355.766 251.017L355.766 253.151C354.884 252.955 353.964 252.846 353.022 252.846 346.113 252.846 340.477 258.482 340.477 265.391 340.477 266.334 340.586 267.253 340.782 268.135L333.378 268.135C332.697 264.204 329.261 261.209 325.145 261.209 322.271 261.209 319.727 262.684 318.219 264.911L318.219 245.745C318.219 245.054 318.73 244.525 319.395 244.525ZM353.02 255.633C358.421 255.633 362.778 259.989 362.778 265.391 362.778 270.794 358.423 275.149 353.02 275.149 347.618 275.149 343.263 270.794 343.263 265.391 343.263 259.989 347.618 255.633 353.02 255.633ZM325.142 263.998C328.071 263.998 330.429 266.23 330.675 269.094L330.675 269.136C330.593 269.409 330.593 269.692 330.675 269.964 330.473 272.866 328.1 275.148 325.142 275.148 322.185 275.148 319.567 272.664 319.567 269.572 319.567 266.48 322.05 263.996 325.142 263.996Z" fill="#FF6E00"/></g></svg>