<?xml version="1.0" encoding="UTF-8" standalone="no"?>
<!DOCTYPE svg PUBLIC "-//W3C//DTD SVG 1.1//EN" "http://www.w3.org/Graphics/SVG/1.1/DTD/svg11.dtd">
<svg width="500px" height="500px" version="1.1" xmlns="http://www.w3.org/2000/svg" xmlns:xlink="http://www.w3.org/1999/xlink" xml:space="preserve" xmlns:serif="http://www.serif.com/" style="fill-rule:evenodd;clip-rule:evenodd;stroke-linejoin:round;stroke-miterlimit:2;">
    <g transform="matrix(1,0,0,1,-1100,0)">
        <g id="ods" transform="matrix(0.416667,0,0,0.416667,1100,0)">
            <rect x="0" y="0" width="1200" height="1200" style="fill:none;"/>
            <g transform="matrix(2.4,0,0,2.4,-2640,0)">
                <path d="M1115.38,261C1115.21,257.354 1115.13,253.687 1115.13,250C1115.13,246.313 1115.21,242.646 1115.38,239L1224.79,239C1230.86,239 1235.79,243.929 1235.79,250C1235.79,256.071 1230.86,261 1224.79,261L1115.38,261ZM1132.92,160.231L1230.26,195.242C1235.97,197.297 1238.94,203.603 1236.89,209.316C1234.84,215.029 1228.53,217.999 1222.82,215.944L1125.47,180.929C1127.63,173.883 1130.12,166.978 1132.92,160.231ZM1567.24,160.627L1450.68,215.097C1445.17,217.667 1438.62,215.288 1436.05,209.788C1433.48,204.288 1435.86,197.736 1441.36,195.166L1557.91,140.705C1561.32,147.173 1564.44,153.82 1567.24,160.627ZM1584.62,261L1457.27,261C1451.2,261 1446.27,256.071 1446.27,250C1446.27,243.929 1451.2,239 1457.27,239L1584.62,239C1584.79,242.646 1584.87,246.313 1584.87,250C1584.87,253.687 1584.79,257.354 1584.62,261ZM1123.91,313.783L1223.06,280.726C1228.82,278.806 1235.05,281.923 1236.97,287.682C1238.89,293.442 1235.78,299.676 1230.02,301.597L1130.87,334.652C1128.24,327.843 1125.91,320.88 1123.91,313.783ZM1547.83,290.279L1547.83,338.494L1499.62,338.494L1499.62,290.279L1547.83,290.279ZM1451.88,300.313C1446.2,298.164 1443.34,291.81 1445.48,286.132C1447.63,280.453 1453.99,277.588 1459.66,279.737L1480.33,287.557C1486.01,289.706 1488.88,296.06 1486.73,301.738C1484.58,307.416 1478.22,310.282 1472.55,308.133L1451.88,300.313Z" style="fill:rgb(255,110,0);"/>
            </g>
            <path d="M600,9.909C925.68,9.909 1190.09,274.32 1190.09,600C1190.09,925.68 925.68,1190.09 600,1190.09C274.32,1190.09 9.909,925.68 9.909,600C9.909,274.32 274.32,9.909 600,9.909ZM600,62.709C303.461,62.709 62.709,303.461 62.709,600C62.709,896.539 303.461,1137.29 600,1137.29C896.539,1137.29 1137.29,896.539 1137.29,600C1137.29,303.461 896.539,62.709 600,62.709Z" style="fill:rgb(255,110,0);"/>
            <g transform="matrix(-0.440327,0,0,0.440327,815.496,358.151)">
                <path d="M796.931,377.988L796.931,213.66C796.931,211.831 797.023,210.003 797.207,208.182L798.125,199.088C798.491,195.467 799.219,191.891 800.297,188.414L802.945,179.879C804.003,176.472 805.392,173.176 807.093,170.04L811.272,162.337C812.943,159.258 814.906,156.347 817.136,153.644L822.649,146.96C824.863,144.278 827.328,141.813 830.01,139.599L836.694,134.086C839.397,131.856 842.308,129.893 845.387,128.222L853.09,124.043C856.226,122.342 859.522,120.953 862.929,119.895L871.464,117.247C874.941,116.169 878.517,115.441 882.138,115.075L891.232,114.157C894.875,113.789 898.545,113.789 902.188,114.157L911.282,115.075C914.904,115.441 918.48,116.169 921.956,117.247L930.491,119.896C933.899,120.953 937.195,122.342 940.331,124.044L948.034,128.223C951.113,129.893 954.024,131.857 956.726,134.086L963.41,139.6C966.093,141.813 968.558,144.278 970.771,146.961L976.284,153.645C978.514,156.347 980.477,159.258 982.148,162.337L986.326,170.04C988.028,173.176 989.417,176.472 990.475,179.879L993.123,188.414C994.201,191.891 994.929,195.467 995.295,199.088L996.213,208.182C996.397,210.002 996.489,211.831 996.489,213.66L996.489,752.909C996.489,752.91 1143.74,752.89 1143.74,752.89C1145.57,752.889 1147.4,752.981 1149.22,753.165L1158.32,754.084C1161.94,754.45 1165.52,755.177 1169,756.256L1177.53,758.904C1180.94,759.962 1184.23,761.351 1187.37,763.052L1195.07,767.231C1198.15,768.902 1201.06,770.865 1203.77,773.095L1210.45,778.608C1213.13,780.822 1215.6,783.287 1217.81,785.969L1223.32,792.653C1225.55,795.356 1227.52,798.267 1229.19,801.346L1233.37,809.049C1235.07,812.185 1236.46,815.481 1237.52,818.888L1240.16,827.423C1241.24,830.9 1241.97,834.476 1242.34,838.097L1243.25,847.191C1243.62,850.834 1243.62,854.504 1243.25,858.147L1242.34,867.241C1241.97,870.863 1241.24,874.439 1240.16,877.915L1237.51,886.45C1236.46,889.858 1235.07,893.154 1233.37,896.29L1229.19,903.993C1227.52,907.072 1225.55,909.983 1223.32,912.685L1217.81,919.369C1215.6,922.052 1213.13,924.517 1210.45,926.73L1203.77,932.243C1201.06,934.473 1198.15,936.436 1195.07,938.107L1187.37,942.285C1184.23,943.987 1180.94,945.376 1177.53,946.434L1169,949.082C1165.52,950.16 1161.94,950.888 1158.32,951.254L1149.23,952.172C1147.41,952.356 1145.58,952.448 1143.75,952.448C1143.75,952.448 1030.34,952.448 970.147,952.448C929.943,1031.69 847.777,1086.09 752.96,1086.09C692.26,1086.09 636.629,1063.78 593.939,1026.93C537.46,1026.93 386.474,1026.93 328.449,1026.93C288.927,1063.62 236.05,1086.09 177.98,1086.09C55.82,1086.09 -43.58,986.69 -43.58,864.529C-43.58,809.323 -23.296,758.833 10.234,720.011C10.232,720.013 10.232,568.929 10.232,568.929C10.232,488.716 71.115,422.393 149.17,413.834L149.17,212.069C149.17,132.064 214.32,66.915 294.325,66.915L572.195,66.915C631.141,66.915 683.837,102.06 706.484,156.456C706.499,156.493 759.279,285.768 796.931,377.988Z" style="fill:white;"/>
            </g>
            <g transform="matrix(-0.440327,0,0,0.440327,815.496,358.151)">
                <path d="M1143.75,807.394L1152.84,808.313L1161.38,810.961L1169.08,815.14L1175.77,820.654L1181.28,827.337L1185.46,835.04L1188.11,843.575L1189.02,852.669L1188.11,861.763L1185.46,870.298L1181.28,878.001L1175.77,884.685L1169.08,890.198L1161.38,894.377L1152.84,897.025L1143.75,897.944C1143.75,897.944 933.598,897.944 933.598,897.943C909.836,975.243 837.957,1031.58 752.96,1031.58C698.97,1031.58 650.153,1008.83 615.69,972.428C615.69,972.428 305.29,972.428 305.291,972.426C274.641,1008.56 228.976,1031.58 177.98,1031.58C85.872,1031.58 10.925,956.638 10.925,864.529C10.925,816.088 31.674,772.48 64.737,741.934L64.737,568.929C64.737,512.968 110.284,467.404 166.309,467.404L203.675,467.404L203.675,212.069C203.675,162.105 244.361,121.419 294.325,121.419L572.195,121.419C609.053,121.419 642.005,143.392 656.166,177.405C656.189,177.462 783.567,489.455 783.567,489.455C788.061,500.271 790.345,511.873 790.345,523.878C790.345,523.878 790.345,657.38 790.344,657.38C812.315,661.803 832.922,670.015 851.435,681.324L851.435,213.66L852.354,204.566L855.002,196.031L859.181,188.328L864.695,181.645L871.378,176.131L879.081,171.952L887.616,169.304L896.71,168.385L905.804,169.304L914.339,171.952L922.042,176.131L928.726,181.645L934.239,188.329L938.418,196.031L941.066,204.566L941.985,213.66C941.985,213.66 941.985,688.903 941.984,807.422L1143.75,807.394ZM753.89,734.343C693.499,734.343 644.47,783.373 644.47,843.763C644.47,904.154 693.499,953.184 753.89,953.184C814.281,953.184 863.311,904.154 863.311,843.763C863.311,783.373 814.281,734.343 753.89,734.343ZM572.2,211.955C572.2,211.955 294.276,211.987 294.276,212.042C294.276,212.042 294.276,474.79 294.276,474.79C401.686,499.747 485.272,587.564 503.539,697.347C503.539,697.347 632.217,697.347 632.215,697.349C651.809,681.022 674.741,668.602 699.848,661.243L699.848,523.861C699.848,523.92 572.342,211.955 572.2,211.955ZM175.293,773.689C124.856,773.689 83.907,814.637 83.907,865.074C83.907,915.511 124.856,956.459 175.293,956.459C225.73,956.459 266.678,915.511 266.678,865.074C266.678,814.637 225.73,773.689 175.293,773.689Z" style="fill:rgb(255,110,0);"/>
            </g>
        </g>
    </g>
</svg>
