<?xml version="1.0" encoding="UTF-8" standalone="no"?>
<!DOCTYPE svg PUBLIC "-//W3C//DTD SVG 1.1//EN" "http://www.w3.org/Graphics/SVG/1.1/DTD/svg11.dtd">
<svg width="500px" height="500px" version="1.1" xmlns="http://www.w3.org/2000/svg" xmlns:xlink="http://www.w3.org/1999/xlink" xml:space="preserve" xmlns:serif="http://www.serif.com/" style="fill-rule:evenodd;clip-rule:evenodd;stroke-linejoin:round;stroke-miterlimit:2;">
    <g transform="matrix(1,0,0,1,-1650,0)">
        <g id="pds" transform="matrix(0.416667,0,0,0.416667,1650,0)">
            <rect x="0" y="0" width="1200" height="1200" style="fill:none;"/>
            <path d="M600,9.909C925.68,9.909 1190.09,274.32 1190.09,600C1190.09,925.68 925.68,1190.09 600,1190.09C274.32,1190.09 9.909,925.68 9.909,600C9.909,274.32 274.32,9.909 600,9.909ZM600,62.709C303.461,62.709 62.709,303.461 62.709,600C62.709,896.539 303.461,1137.29 600,1137.29C896.539,1137.29 1137.29,896.539 1137.29,600C1137.29,303.461 896.539,62.709 600,62.709Z" style="fill:rgb(255,110,0);"/>
            <g transform="matrix(0.686812,0,0,0.686812,187.909,187.914)">
                <path d="M1164.28,743.201C1164.41,744.21 1164.48,745.228 1164.48,746.248L1164.48,871.358L1163.72,878.863L1161.53,885.912L1158.08,892.27L1153.53,897.784L1148.02,902.334L1141.66,905.784L1134.61,907.973L1127.1,908.732L915.154,908.732L907.819,908.005L900.837,905.88L894.405,902.44L888.726,897.775L884.062,892.085L880.628,885.647L878.512,878.671L877.791,871.358L877.791,777.518C877.791,777.518 743.352,777.518 743.352,777.518L743.352,871.358L742.628,878.68L740.509,885.658L737.071,892.097L732.399,897.789L726.719,902.447L720.292,905.882L713.315,908.005L705.981,908.732L494.031,908.732L486.698,908.005L479.721,905.882L473.293,902.447L467.613,897.789L462.941,892.096L459.504,885.658L457.384,878.68L456.66,871.358L456.66,777.518C456.66,777.518 322.222,777.518 322.222,777.518L322.222,871.358L321.5,878.671L319.385,885.647L315.951,892.085L311.287,897.775L305.607,902.44L299.175,905.88L292.193,908.005L284.859,908.732L72.909,908.732L65.575,908.005L58.599,905.882L52.171,902.447L46.491,897.789L41.819,892.096L38.381,885.658L36.262,878.68L35.538,871.358L35.538,744.337C35.538,743.638 35.568,742.94 35.628,742.244C35.568,741.548 35.538,740.849 35.538,740.15L35.538,608.95L36.81,599.284L40.516,590.307L40.541,590.263L202.376,309.945L208.372,302.152L216.053,296.272L224.987,292.56L234.739,291.265L965.259,291.265L975.012,292.56L983.947,296.272L991.628,302.153L997.624,309.947L1159.46,590.263L1159.48,590.307L1163.19,599.284L1164.46,608.949L1164.48,740.151C1164.48,741.172 1164.41,742.19 1164.28,743.201ZM256.302,366.021L137.623,571.579L313.616,571.579L368.701,366.021L256.302,366.021ZM110.261,702.739L1089.74,702.739L1089.74,646.311L110.261,646.311L110.261,702.739ZM753.95,366.021L637.361,366.021L637.361,571.579L809.023,571.579L753.95,366.021ZM247.465,833.99L247.465,777.525C247.465,777.525 110.257,777.525 110.257,777.525C110.257,777.525 110.257,833.993 110.257,833.993L247.465,833.99ZM668.585,833.99C668.585,833.99 668.585,777.525 668.585,777.525C668.585,777.525 531.387,777.525 531.387,777.525L531.387,833.993L668.585,833.99ZM952.507,833.989C952.507,833.989 1089.71,833.989 1089.71,833.989L1089.71,777.531C1089.71,777.531 952.507,777.531 952.507,777.531L952.507,833.989ZM1062.36,571.579L943.717,366.021L831.315,366.021L886.362,571.579L1062.36,571.579ZM562.619,366.021L446.034,366.021L390.958,571.579L562.619,571.579L562.619,366.021Z" style="fill:rgb(255,110,0);fill-rule:nonzero;"/>
            </g>
        </g>
    </g>
</svg>
