<?xml version="1.0" encoding="UTF-8" standalone="no"?>
<!DOCTYPE svg PUBLIC "-//W3C//DTD SVG 1.1//EN" "http://www.w3.org/Graphics/SVG/1.1/DTD/svg11.dtd">
<svg width="500px" height="500px" version="1.1" xmlns="http://www.w3.org/2000/svg" xmlns:xlink="http://www.w3.org/1999/xlink" xml:space="preserve" xmlns:serif="http://www.serif.com/" style="fill-rule:evenodd;clip-rule:evenodd;stroke-linejoin:round;stroke-miterlimit:2;">
    <g transform="matrix(1,0,0,1,0,-550)">
        <g id="mounting" transform="matrix(0.416667,0,0,0.416667,0,550)">
            <rect x="0" y="0" width="1200" height="1200" style="fill:none;"/>
            <path d="M600,9.909C925.68,9.909 1190.09,274.32 1190.09,600C1190.09,925.68 925.68,1190.09 600,1190.09C274.32,1190.09 9.909,925.68 9.909,600C9.909,274.32 274.32,9.909 600,9.909ZM600,62.709C303.461,62.709 62.709,303.461 62.709,600C62.709,896.539 303.461,1137.29 600,1137.29C896.539,1137.29 1137.29,896.539 1137.29,600C1137.29,303.461 896.539,62.709 600,62.709Z" style="fill:rgb(255,110,0);"/>
            <g transform="matrix(0.908883,0,0,0.908883,54.6158,79.635)">
                <path d="M342.103,715.328L347.581,702.125L347.631,702.175L382.372,661.948L388.56,567.314C390.417,538.99 400.914,512.124 418.387,490.099C418.387,490.099 407.595,479.306 407.595,479.307C389.086,485.539 369.865,488.693 350.255,488.693C250.518,488.693 169.372,407.551 169.372,307.809C169.372,277.126 177.274,246.723 192.225,219.892L199.96,206.009C201.975,202.392 205.569,199.93 209.67,199.358C213.771,198.786 217.902,200.171 220.83,203.099L294,276.273C302.166,284.437 316.392,284.451 324.561,276.277L324.566,276.272C328.651,272.189 330.899,266.767 330.899,260.997C330.899,255.221 328.647,249.796 324.563,245.712L252.633,173.782C249.614,170.763 248.241,166.469 248.949,162.258C249.657,158.047 252.358,154.438 256.199,152.571L271.35,145.209C296.32,133.071 322.864,126.927 350.258,126.927C449.995,126.927 531.141,208.077 531.141,307.81C531.141,325.431 528.585,342.787 523.524,359.606C523.524,359.606 535.481,371.563 535.481,371.563L544.606,362.436C559.635,347.403 581.965,344.262 600.182,352.818C600.182,352.818 633.606,321.162 633.586,321.182C660.923,294.489 705.409,294.724 732.589,321.917C745.903,335.234 753.005,352.375 753.914,369.749C771.962,371.089 789.465,378.784 802.555,391.882L806.005,395.327L806.011,395.334C822.93,412.256 829.412,435.727 825.442,457.658C836.316,460.959 846.555,466.9 855.135,475.481L857.283,477.629C878.288,498.633 883.051,529.815 871.585,555.443C880.798,559.173 889.255,564.753 896.494,571.996C910.229,585.722 917.799,603.988 917.799,623.418C917.799,642.848 910.229,661.113 896.494,674.848L868.626,702.716L1004.26,831.806C1004.34,831.881 1004.42,831.957 1004.5,832.034C1038.8,866.336 1039.57,920.46 1006.55,955.499C990,973.064 967.607,982.939 943.475,983.306C943.016,983.315 942.557,983.316 942.098,983.316C918.47,983.316 896.309,974.144 879.559,957.393C879.559,957.393 746.469,824.304 746.47,824.304C726.86,841.875 704.726,856.124 680.479,866.728L680.473,866.73C680.473,866.73 675.681,868.258 675.61,868.289L597.417,884.89C597.417,884.89 563.379,918.929 563.379,918.929L567.629,923.179L570.848,927.122L573.164,931.521L574.551,936.197L575.011,940.999L574.551,945.802L573.164,950.477L570.848,954.877L567.629,958.82L460.769,1065.68L456.826,1068.9L452.426,1071.21L447.751,1072.6L442.948,1073.06L438.146,1072.6L433.471,1071.21L429.071,1068.9C429.071,1068.9 425.128,1065.68 425.128,1065.68L202.378,842.939L199.159,838.997L196.843,834.597L195.456,829.921L194.995,825.119L195.456,820.317L196.843,815.641L199.159,811.241L202.378,807.299L309.239,700.438L313.181,697.219L317.581,694.903L322.256,693.517L327.059,693.056L331.861,693.517L336.537,694.903L340.936,697.219L344.879,700.439L347.063,702.622L341.889,715.113L342.103,715.328ZM836.842,663.038C843.532,656.348 859.979,640.072 860.899,639.161C865.083,634.945 867.393,629.361 867.393,623.417C867.393,617.458 865.068,611.85 860.854,607.636C851.497,598.279 835.184,598.281 825.825,607.637C825.825,607.637 803.301,630.161 803.237,630.228C799.051,634.62 796.705,640.329 796.705,646.417C796.705,652.693 799.146,658.597 803.587,663.033C812.472,671.908 827.957,671.934 836.837,663.044L836.842,663.038ZM403.49,426.858L411.035,423.479C416.034,421.241 421.896,422.321 425.769,426.194L453.316,453.747C453.316,453.747 499.85,407.213 499.85,407.213L471.065,378.428C467.314,374.678 466.172,369.047 468.165,364.132L471.155,356.756C477.518,341.078 480.745,324.612 480.745,307.823C480.745,235.876 422.215,177.346 350.268,177.346C343.161,177.346 336.131,177.923 329.203,179.071L360.21,210.081C373.818,223.681 381.314,241.766 381.314,261.01C381.314,280.243 373.816,298.328 360.214,311.926C346.619,325.534 328.529,333.029 309.295,333.029C290.052,333.029 271.966,325.529 258.37,311.929C258.37,311.929 223.489,277.053 223.489,277.052C221.042,287.101 219.787,297.438 219.787,307.819C219.787,379.762 278.317,438.296 350.264,438.296C368.636,438.296 386.543,434.445 403.49,426.858ZM740.612,488.867L770.372,459.107C778.123,451.352 778.123,438.733 770.373,430.978L766.935,427.545L766.927,427.537C757.213,417.82 740.349,417.687 730.501,427.216L704.73,452.981L740.612,488.867ZM736.987,568.207C729.206,575.992 729.205,588.653 736.985,596.437C744.894,604.346 755.991,604.574 765.854,596.323C770.898,591.282 821.312,540.868 821.638,540.543C829.158,533.02 829.16,520.788 821.639,513.268L819.491,511.12C811.544,503.173 797.704,503.147 789.706,511.044C787.349,513.498 749.298,553.16 737.897,567.198C737.611,567.549 737.307,567.886 736.987,568.207ZM442.951,1012.23C442.951,1012.23 514.17,941.012 514.17,941.012L327.072,753.914C327.072,753.914 255.853,825.129 255.853,825.129L442.951,1012.23ZM609.225,575.822C606.238,585.155 601.73,594.103 595.707,602.277L915.183,921.753C922.529,929.091 932.405,933.083 942.667,932.909L942.692,932.908C953.082,932.752 962.724,928.503 969.845,920.941C984.031,905.884 983.72,882.651 969.161,867.988L813.088,719.456C794.774,715.555 780.332,711.062 767.952,698.683C755.44,686.174 747.964,669.964 746.549,652.516C730.078,651.457 713.913,644.647 701.35,632.084C691.294,622.027 684.999,609.674 682.359,596.698C656.814,600.53 629.963,593.597 609.225,575.822ZM668.484,357.561L638.099,386.338C638.099,386.338 669.09,417.333 669.09,417.333L694.534,391.889C694.738,391.685 694.939,391.485 695.134,391.297L697.123,389.308C705.825,380.603 705.826,366.435 697.125,357.73C689.228,349.84 676.504,349.7 668.649,357.402C668.594,357.456 668.539,357.509 668.484,357.561ZM579.639,837.149L662.556,819.54L662.567,819.535C680.138,811.583 696.287,801.202 710.765,788.593L560.843,638.67L556.464,643.049C551.307,648.206 542.948,648.206 537.792,643.049L520.823,626.08C515.667,620.924 515.667,612.565 520.823,607.409L550.986,577.246C567.332,560.896 567.332,534.288 550.986,517.939L547.766,513.995L545.451,509.594L544.064,504.918L543.604,500.116L544.065,495.313L545.452,490.636L547.77,486.235L550.991,482.295L554.93,479.079L559.329,476.763L564.005,475.377L568.807,474.916L573.609,475.377L578.285,476.763L582.685,479.079L586.628,482.299L639.683,535.361C655.732,551.41 681.831,551.39 697.872,535.358L706.86,526.37L579.416,398.926L464.658,513.684C449.436,528.906 440.272,549.127 438.872,570.618L432.134,673.679L431.535,677.739L430.299,681.609L426.074,688.495L426.056,688.517L383.341,737.975L528.019,883.017C528.019,883.017 567.054,843.982 567.032,844.004L572.848,839.651C572.848,839.651 579.628,837.155 579.639,837.149Z" style="fill:rgb(255,110,0);fill-rule:nonzero;"/>
            </g>
        </g>
    </g>
</svg>
