<?xml version="1.0" encoding="UTF-8" standalone="no"?>
<!DOCTYPE svg PUBLIC "-//W3C//DTD SVG 1.1//EN" "http://www.w3.org/Graphics/SVG/1.1/DTD/svg11.dtd">
<svg width="500px" height="500px" version="1.1" xmlns="http://www.w3.org/2000/svg" xmlns:xlink="http://www.w3.org/1999/xlink" xml:space="preserve" xmlns:serif="http://www.serif.com/" style="fill-rule:evenodd;clip-rule:evenodd;stroke-linejoin:round;stroke-miterlimit:2;">
    <g transform="matrix(1,0,0,1,-550,-1100)">
        <g id="point-cloud-analysis" serif:id="point cloud analysis" transform="matrix(0.416667,0,0,0.416667,550,1100)">
            <rect x="0" y="0" width="1200" height="1200" style="fill:none;"/>
            <path d="M600,9.909C925.68,9.909 1190.09,274.32 1190.09,600C1190.09,925.68 925.68,1190.09 600,1190.09C274.32,1190.09 9.909,925.68 9.909,600C9.909,274.32 274.32,9.909 600,9.909ZM600,62.709C303.461,62.709 62.709,303.461 62.709,600C62.709,896.539 303.461,1137.29 600,1137.29C896.539,1137.29 1137.29,896.539 1137.29,600C1137.29,303.461 896.539,62.709 600,62.709Z" style="fill:rgb(255,110,0);"/>
            <g transform="matrix(2.4,0,0,2.4,0,-2640)">
                <path d="M134.655,1245.97C134.655,1283.76 134.655,1403.25 134.655,1403.25L183.778,1452.84C186.886,1455.98 186.862,1461.05 183.725,1464.15C180.588,1467.26 175.519,1467.24 172.412,1464.1L120.972,1412.17C119.488,1410.68 118.655,1408.65 118.655,1406.55L118.655,1226.65C118.655,1225.29 118.997,1224.01 119.599,1222.88C119.961,1222.2 120.428,1221.57 120.999,1221C121.569,1220.43 122.205,1219.96 122.882,1219.6C124.006,1219 125.291,1218.65 126.655,1218.65L306.545,1218.65C308.669,1218.65 310.706,1219.5 312.206,1221L363.566,1272.44C366.685,1275.57 366.681,1280.64 363.557,1283.76C360.432,1286.88 355.363,1286.87 352.243,1283.75L303.228,1234.65L145.969,1234.65L183.752,1272.44C186.874,1275.56 186.874,1280.63 183.752,1283.75C180.63,1286.87 175.56,1286.87 172.438,1283.75L134.655,1245.97ZM193.29,1481.35C188.875,1481.35 185.29,1477.76 185.29,1473.35C185.29,1468.93 188.875,1465.35 193.29,1465.35C197.706,1465.35 201.29,1468.93 201.29,1473.35C201.29,1477.76 197.706,1481.35 193.29,1481.35ZM223.272,1481.35C218.857,1481.35 215.272,1477.76 215.272,1473.35C215.272,1468.93 218.857,1465.35 223.272,1465.35C227.688,1465.35 231.272,1468.93 231.272,1473.35C231.272,1477.76 227.688,1481.35 223.272,1481.35ZM253.254,1481.35C248.838,1481.35 245.254,1477.76 245.254,1473.35C245.254,1468.93 248.838,1465.35 253.254,1465.35C257.669,1465.35 261.254,1468.93 261.254,1473.35C261.254,1477.76 257.669,1481.35 253.254,1481.35ZM283.236,1481.35C278.82,1481.35 275.236,1477.76 275.236,1473.35C275.236,1468.93 278.82,1465.35 283.236,1465.35C287.651,1465.35 291.236,1468.93 291.236,1473.35C291.236,1477.76 287.651,1481.35 283.236,1481.35ZM313.218,1481.35C308.802,1481.35 305.217,1477.76 305.217,1473.35C305.217,1468.93 308.802,1465.35 313.218,1465.35C317.633,1465.35 321.218,1468.93 321.218,1473.35C321.218,1477.76 317.633,1481.35 313.218,1481.35ZM343.2,1481.35C338.784,1481.35 335.2,1477.76 335.2,1473.35C335.2,1468.93 338.784,1465.35 343.2,1465.35C347.615,1465.35 351.2,1468.93 351.2,1473.35C351.2,1477.76 347.615,1481.35 343.2,1481.35ZM373.182,1481.35C368.766,1481.35 365.182,1477.76 365.182,1473.35C365.182,1468.93 368.766,1465.35 373.182,1465.35C377.597,1465.35 381.182,1468.93 381.182,1473.35C381.182,1477.76 377.597,1481.35 373.182,1481.35ZM193.29,1455.65C188.875,1455.65 185.29,1452.06 185.29,1447.65C185.29,1443.23 188.875,1439.65 193.29,1439.65C197.706,1439.65 201.29,1443.23 201.29,1447.65C201.29,1452.06 197.706,1455.65 193.29,1455.65ZM223.272,1455.65C218.857,1455.65 215.272,1452.06 215.272,1447.65C215.272,1443.23 218.857,1439.65 223.272,1439.65C227.688,1439.65 231.272,1443.23 231.272,1447.65C231.272,1452.06 227.688,1455.65 223.272,1455.65ZM253.254,1455.65C248.838,1455.65 245.254,1452.06 245.254,1447.65C245.254,1443.23 248.838,1439.65 253.254,1439.65C257.669,1439.65 261.254,1443.23 261.254,1447.65C261.254,1452.06 257.669,1455.65 253.254,1455.65ZM283.236,1455.65C278.82,1455.65 275.236,1452.06 275.236,1447.65C275.236,1443.23 278.82,1439.65 283.236,1439.65C287.651,1439.65 291.236,1443.23 291.236,1447.65C291.236,1452.06 287.651,1455.65 283.236,1455.65ZM313.218,1455.65C308.802,1455.65 305.217,1452.06 305.217,1447.65C305.217,1443.23 308.802,1439.65 313.218,1439.65C317.633,1439.65 321.218,1443.23 321.218,1447.65C321.218,1452.06 317.633,1455.65 313.218,1455.65ZM343.2,1455.65C338.784,1455.65 335.2,1452.06 335.2,1447.65C335.2,1443.23 338.784,1439.65 343.2,1439.65C347.615,1439.65 351.2,1443.23 351.2,1447.65C351.2,1452.06 347.615,1455.65 343.2,1455.65ZM373.182,1455.65C368.766,1455.65 365.182,1452.06 365.182,1447.65C365.182,1443.23 368.766,1439.65 373.182,1439.65C377.597,1439.65 381.182,1443.23 381.182,1447.65C381.182,1452.06 377.597,1455.65 373.182,1455.65ZM193.29,1429.95C188.875,1429.95 185.29,1426.36 185.29,1421.95C185.29,1417.53 188.875,1413.95 193.29,1413.95C197.706,1413.95 201.29,1417.53 201.29,1421.95C201.29,1426.36 197.706,1429.95 193.29,1429.95ZM223.272,1429.95C218.857,1429.95 215.272,1426.36 215.272,1421.95C215.272,1417.53 218.857,1413.95 223.272,1413.95C227.688,1413.95 231.272,1417.53 231.272,1421.95C231.272,1426.36 227.688,1429.95 223.272,1429.95ZM253.254,1429.95C248.838,1429.95 245.254,1426.36 245.254,1421.95C245.254,1417.53 248.838,1413.95 253.254,1413.95C257.669,1413.95 261.254,1417.53 261.254,1421.95C261.254,1426.36 257.669,1429.95 253.254,1429.95ZM283.236,1429.95C278.82,1429.95 275.236,1426.36 275.236,1421.95C275.236,1417.53 278.82,1413.95 283.236,1413.95C287.651,1413.95 291.236,1417.53 291.236,1421.95C291.236,1426.36 287.651,1429.95 283.236,1429.95ZM313.218,1429.95C308.802,1429.95 305.217,1426.36 305.217,1421.95C305.217,1417.53 308.802,1413.95 313.218,1413.95C317.633,1413.95 321.218,1417.53 321.218,1421.95C321.218,1426.36 317.633,1429.95 313.218,1429.95ZM343.2,1429.95C338.784,1429.95 335.2,1426.36 335.2,1421.95C335.2,1417.53 338.784,1413.95 343.2,1413.95C347.615,1413.95 351.2,1417.53 351.2,1421.95C351.2,1426.36 347.615,1429.95 343.2,1429.95ZM373.182,1429.95C368.766,1429.95 365.182,1426.36 365.182,1421.95C365.182,1417.53 368.766,1413.95 373.182,1413.95C377.597,1413.95 381.182,1417.53 381.182,1421.95C381.182,1426.36 377.597,1429.95 373.182,1429.95ZM193.29,1404.25C188.875,1404.25 185.29,1400.66 185.29,1396.25C185.29,1391.83 188.875,1388.25 193.29,1388.25C197.706,1388.25 201.29,1391.83 201.29,1396.25C201.29,1400.66 197.706,1404.25 193.29,1404.25ZM223.272,1404.25C218.857,1404.25 215.272,1400.66 215.272,1396.25C215.272,1391.83 218.857,1388.25 223.272,1388.25C227.688,1388.25 231.272,1391.83 231.272,1396.25C231.272,1400.66 227.688,1404.25 223.272,1404.25ZM253.254,1404.25C248.838,1404.25 245.254,1400.66 245.254,1396.25C245.254,1391.83 248.838,1388.25 253.254,1388.25C257.669,1388.25 261.254,1391.83 261.254,1396.25C261.254,1400.66 257.669,1404.25 253.254,1404.25ZM283.236,1404.25C278.82,1404.25 275.236,1400.66 275.236,1396.25C275.236,1391.83 278.82,1388.25 283.236,1388.25C287.651,1388.25 291.236,1391.83 291.236,1396.25C291.236,1400.66 287.651,1404.25 283.236,1404.25ZM313.218,1404.25C308.802,1404.25 305.217,1400.66 305.217,1396.25C305.217,1391.83 308.802,1388.25 313.218,1388.25C317.633,1388.25 321.218,1391.83 321.218,1396.25C321.218,1400.66 317.633,1404.25 313.218,1404.25ZM343.2,1404.25C338.784,1404.25 335.2,1400.66 335.2,1396.25C335.2,1391.83 338.784,1388.25 343.2,1388.25C347.615,1388.25 351.2,1391.83 351.2,1396.25C351.2,1400.66 347.615,1404.25 343.2,1404.25ZM373.182,1404.25C368.766,1404.25 365.182,1400.66 365.182,1396.25C365.182,1391.83 368.766,1388.25 373.182,1388.25C377.597,1388.25 381.182,1391.83 381.182,1396.25C381.182,1400.66 377.597,1404.25 373.182,1404.25ZM193.29,1378.55C188.875,1378.55 185.29,1374.97 185.29,1370.55C185.29,1366.13 188.875,1362.55 193.29,1362.55C197.706,1362.55 201.29,1366.13 201.29,1370.55C201.29,1374.97 197.706,1378.55 193.29,1378.55ZM223.272,1378.55C218.857,1378.55 215.272,1374.97 215.272,1370.55C215.272,1366.13 218.857,1362.55 223.272,1362.55C227.688,1362.55 231.272,1366.13 231.272,1370.55C231.272,1374.97 227.688,1378.55 223.272,1378.55ZM253.254,1378.55C248.838,1378.55 245.254,1374.97 245.254,1370.55C245.254,1366.13 248.838,1362.55 253.254,1362.55C257.669,1362.55 261.254,1366.13 261.254,1370.55C261.254,1374.97 257.669,1378.55 253.254,1378.55ZM283.236,1378.55C278.82,1378.55 275.236,1374.97 275.236,1370.55C275.236,1366.13 278.82,1362.55 283.236,1362.55C287.651,1362.55 291.236,1366.13 291.236,1370.55C291.236,1374.97 287.651,1378.55 283.236,1378.55ZM313.218,1378.55C308.802,1378.55 305.217,1374.97 305.217,1370.55C305.217,1366.13 308.802,1362.55 313.218,1362.55C317.633,1362.55 321.218,1366.13 321.218,1370.55C321.218,1374.97 317.633,1378.55 313.218,1378.55ZM343.2,1378.55C338.784,1378.55 335.2,1374.97 335.2,1370.55C335.2,1366.13 338.784,1362.55 343.2,1362.55C347.615,1362.55 351.2,1366.13 351.2,1370.55C351.2,1374.97 347.615,1378.55 343.2,1378.55ZM373.182,1378.55C368.766,1378.55 365.182,1374.97 365.182,1370.55C365.182,1366.13 368.766,1362.55 373.182,1362.55C377.597,1362.55 381.182,1366.13 381.182,1370.55C381.182,1374.97 377.597,1378.55 373.182,1378.55ZM193.29,1352.85C188.875,1352.85 185.29,1349.27 185.29,1344.85C185.29,1340.44 188.875,1336.85 193.29,1336.85C197.706,1336.85 201.29,1340.44 201.29,1344.85C201.29,1349.27 197.706,1352.85 193.29,1352.85ZM223.272,1352.85C218.857,1352.85 215.272,1349.27 215.272,1344.85C215.272,1340.44 218.857,1336.85 223.272,1336.85C227.688,1336.85 231.272,1340.44 231.272,1344.85C231.272,1349.27 227.688,1352.85 223.272,1352.85ZM253.254,1352.85C248.838,1352.85 245.254,1349.27 245.254,1344.85C245.254,1340.44 248.838,1336.85 253.254,1336.85C257.669,1336.85 261.254,1340.44 261.254,1344.85C261.254,1349.27 257.669,1352.85 253.254,1352.85ZM283.236,1352.85C278.82,1352.85 275.236,1349.27 275.236,1344.85C275.236,1340.44 278.82,1336.85 283.236,1336.85C287.651,1336.85 291.236,1340.44 291.236,1344.85C291.236,1349.27 287.651,1352.85 283.236,1352.85ZM313.218,1352.85C308.802,1352.85 305.217,1349.27 305.217,1344.85C305.217,1340.44 308.802,1336.85 313.218,1336.85C317.633,1336.85 321.218,1340.44 321.218,1344.85C321.218,1349.27 317.633,1352.85 313.218,1352.85ZM343.2,1352.85C338.784,1352.85 335.2,1349.27 335.2,1344.85C335.2,1340.44 338.784,1336.85 343.2,1336.85C347.615,1336.85 351.2,1340.44 351.2,1344.85C351.2,1349.27 347.615,1352.85 343.2,1352.85ZM373.182,1352.85C368.766,1352.85 365.182,1349.27 365.182,1344.85C365.182,1340.44 368.766,1336.85 373.182,1336.85C377.597,1336.85 381.182,1340.44 381.182,1344.85C381.182,1349.27 377.597,1352.85 373.182,1352.85ZM193.29,1327.15C188.875,1327.15 185.29,1323.57 185.29,1319.15C185.29,1314.74 188.875,1311.15 193.29,1311.15C197.706,1311.15 201.29,1314.74 201.29,1319.15C201.29,1323.57 197.706,1327.15 193.29,1327.15ZM223.272,1327.15C218.857,1327.15 215.272,1323.57 215.272,1319.15C215.272,1314.74 218.857,1311.15 223.272,1311.15C227.688,1311.15 231.272,1314.74 231.272,1319.15C231.272,1323.57 227.688,1327.15 223.272,1327.15ZM253.254,1327.15C248.838,1327.15 245.254,1323.57 245.254,1319.15C245.254,1314.74 248.838,1311.15 253.254,1311.15C257.669,1311.15 261.254,1314.74 261.254,1319.15C261.254,1323.57 257.669,1327.15 253.254,1327.15ZM283.236,1327.15C278.82,1327.15 275.236,1323.57 275.236,1319.15C275.236,1314.74 278.82,1311.15 283.236,1311.15C287.651,1311.15 291.236,1314.74 291.236,1319.15C291.236,1323.57 287.651,1327.15 283.236,1327.15ZM313.218,1327.15C308.802,1327.15 305.217,1323.57 305.217,1319.15C305.217,1314.74 308.802,1311.15 313.218,1311.15C317.633,1311.15 321.218,1314.74 321.218,1319.15C321.218,1323.57 317.633,1327.15 313.218,1327.15ZM343.2,1327.15C338.784,1327.15 335.2,1323.57 335.2,1319.15C335.2,1314.74 338.784,1311.15 343.2,1311.15C347.615,1311.15 351.2,1314.74 351.2,1319.15C351.2,1323.57 347.615,1327.15 343.2,1327.15ZM373.182,1327.15C368.766,1327.15 365.182,1323.57 365.182,1319.15C365.182,1314.74 368.766,1311.15 373.182,1311.15C377.597,1311.15 381.182,1314.74 381.182,1319.15C381.182,1323.57 377.597,1327.15 373.182,1327.15ZM193.29,1301.45C188.875,1301.45 185.29,1297.87 185.29,1293.45C185.29,1289.04 188.875,1285.45 193.29,1285.45C197.706,1285.45 201.29,1289.04 201.29,1293.45C201.29,1297.87 197.706,1301.45 193.29,1301.45ZM223.272,1301.45C218.857,1301.45 215.272,1297.87 215.272,1293.45C215.272,1289.04 218.857,1285.45 223.272,1285.45C227.688,1285.45 231.272,1289.04 231.272,1293.45C231.272,1297.87 227.688,1301.45 223.272,1301.45ZM253.254,1301.45C248.838,1301.45 245.254,1297.87 245.254,1293.45C245.254,1289.04 248.838,1285.45 253.254,1285.45C257.669,1285.45 261.254,1289.04 261.254,1293.45C261.254,1297.87 257.669,1301.45 253.254,1301.45ZM283.236,1301.45C278.82,1301.45 275.236,1297.87 275.236,1293.45C275.236,1289.04 278.82,1285.45 283.236,1285.45C287.651,1285.45 291.236,1289.04 291.236,1293.45C291.236,1297.87 287.651,1301.45 283.236,1301.45ZM313.218,1301.45C308.802,1301.45 305.217,1297.87 305.217,1293.45C305.217,1289.04 308.802,1285.45 313.218,1285.45C317.633,1285.45 321.218,1289.04 321.218,1293.45C321.218,1297.87 317.633,1301.45 313.218,1301.45ZM343.2,1301.45C338.784,1301.45 335.2,1297.87 335.2,1293.45C335.2,1289.04 338.784,1285.45 343.2,1285.45C347.615,1285.45 351.2,1289.04 351.2,1293.45C351.2,1297.87 347.615,1301.45 343.2,1301.45ZM373.182,1301.45C368.766,1301.45 365.182,1297.87 365.182,1293.45C365.182,1289.04 368.766,1285.45 373.182,1285.45C377.597,1285.45 381.182,1289.04 381.182,1293.45C381.182,1297.87 377.597,1301.45 373.182,1301.45Z" style="fill:rgb(255,110,0);"/>
            </g>
            <g transform="matrix(0.943324,0.331874,-0.331874,0.943324,313.21,-177.515)">
                <path d="M787.693,920.936C790.535,933.906 788.734,947.934 781.578,960.329L714.766,1076.05C699.533,1102.43 665.746,1111.49 639.362,1096.26C612.978,1081.02 603.924,1047.23 619.157,1020.85L685.969,905.129C693.125,892.734 704.373,884.16 717.025,880.137C717.025,880.137 722.959,869.86 722.959,869.861C688.927,837.696 667.685,792.14 667.685,741.663C667.685,644.305 746.727,565.263 844.085,565.263C941.443,565.263 1020.49,644.305 1020.49,741.663C1020.49,839.021 941.443,918.063 844.085,918.063C826.542,918.063 809.593,915.494 793.595,910.715L787.693,920.936Z" style="fill:white;"/>
            </g>
            <g transform="matrix(2.26398,0.796498,-0.796498,2.26398,-8864.09,-3593.36)">
                <path d="M4399.03,456.304C4400.81,460.496 4400.68,465.448 4398.23,469.694L4370.39,517.912C4366.25,525.081 4357.07,527.541 4349.9,523.402C4342.73,519.263 4340.27,510.081 4344.41,502.912L4372.24,454.694C4374.7,450.448 4378.92,447.854 4383.44,447.304L4390.97,434.262C4375.59,422.272 4365.7,403.574 4365.7,382.584C4365.7,346.433 4395.05,317.084 4431.2,317.084C4467.35,317.084 4496.7,346.433 4496.7,382.584C4496.7,418.734 4467.35,448.084 4431.2,448.084C4422.48,448.084 4414.16,446.377 4406.55,443.28L4399.03,456.304ZM4431.2,335.084C4404.98,335.084 4383.7,356.368 4383.7,382.584C4383.7,408.8 4404.98,430.084 4431.2,430.084C4457.41,430.084 4478.7,408.8 4478.7,382.584C4478.7,356.368 4457.41,335.084 4431.2,335.084Z" style="fill:rgb(255,110,0);"/>
            </g>
        </g>
    </g>
</svg>
