<?xml version="1.0" encoding="utf-8"?>
<!-- Generator: Adobe Illustrator 24.3.0, SVG Export Plug-In . SVG Version: 6.00 Build 0)  -->
<svg version="1.1" id="Layer_3" xmlns="http://www.w3.org/2000/svg" xmlns:xlink="http://www.w3.org/1999/xlink" x="0px" y="0px"
	 viewBox="0 0 135 540" style="enable-background:new 0 0 135 540;" xml:space="preserve">
<style type="text/css">
	.st0{fill:#FF6E00;}
	.st1{fill:#FFFFFF;}
</style>
<g>
	<circle class="st0" cx="67.5" cy="67.5" r="62.5"/>
	<g>
		<path class="st1" d="M67,69.8c-0.3,0-0.6,0-0.8-0.1l-36-13c-1.3-0.5-2-1.9-1.5-3.2c0.5-1.3,1.9-2,3.2-1.5L67,64.7L102.2,52
			c1.3-0.5,2.7,0.2,3.2,1.5c0.5,1.3-0.2,2.7-1.5,3.2l-36,13C67.6,69.8,67.3,69.8,67,69.8z"/>
		<path class="st1" d="M67,113.8c-1.4,0-2.5-1.1-2.5-2.5v-44c0-1.4,1.1-2.5,2.5-2.5s2.5,1.1,2.5,2.5v44
			C69.5,112.7,68.4,113.8,67,113.8z"/>
		<path class="st1" d="M67,54.8c-1.4,0-2.5-1.1-2.5-2.5v-37c0-1.4,1.1-2.5,2.5-2.5s2.5,1.1,2.5,2.5v37C69.5,53.7,68.4,54.8,67,54.8z
			"/>
		<path class="st1" d="M78.6,29.4c-0.6,0-1.3-0.2-1.8-0.7L67,18.9l-9.8,9.8c-1,1-2.6,1-3.5,0c-1-1-1-2.6,0-3.5l11.6-11.6
			c0.9-0.9,2.6-0.9,3.5,0l11.6,11.6c1,1,1,2.6,0,3.5C79.9,29.2,79.2,29.4,78.6,29.4z"/>
		<path class="st1" d="M103.8,52L75,41.6v5.3l25.5,9.2v40.5L67,108.7L33.5,96.6V56.1l26.2-9.5v-5.3L30.2,52c-1,0.4-1.7,1.3-1.7,2.4
			v44c0,1.1,0.7,2,1.7,2.4l36,13c0.3,0.1,0.6,0.1,0.8,0.1s0.6,0,0.8-0.1l36-13c1-0.4,1.7-1.3,1.7-2.4v-44
			C105.5,53.3,104.8,52.3,103.8,52z"/>
		<g>
			<polygon class="st0" points="59.3,82.3 24,69.3 31,54.3 67,67.3 			"/>
			<path class="st1" d="M59.3,84.8c-0.3,0-0.6,0-0.9-0.2l-35.3-13c-0.7-0.2-1.2-0.7-1.4-1.4c-0.3-0.6-0.2-1.4,0-2l7-15
				c0.5-1.2,1.9-1.7,3.1-1.3l36,13c0.7,0.2,1.2,0.8,1.5,1.4c0.3,0.7,0.2,1.4-0.1,2.1l-7.7,15C61.1,84.3,60.2,84.8,59.3,84.8z
				 M27.4,67.9l30.7,11.3l5.4-10.5L32.3,57.4L27.4,67.9z"/>
		</g>
		<g>
			<polygon class="st0" points="74.7,82.3 111,69.3 103,54.3 67,67.3 			"/>
			<path class="st1" d="M74.7,84.8c-0.9,0-1.8-0.5-2.2-1.4l-7.7-15c-0.3-0.6-0.4-1.4-0.1-2.1c0.3-0.7,0.8-1.2,1.5-1.4l36-13
				c1.2-0.4,2.5,0.1,3.1,1.2l8,15c0.3,0.6,0.4,1.4,0.1,2.1s-0.8,1.2-1.5,1.5l-36.3,13C75.3,84.8,75,84.8,74.7,84.8z M70.5,68.7
				l5.4,10.5l31.5-11.3l-5.6-10.5L70.5,68.7z"/>
		</g>
	</g>
</g>
<g>
	<circle class="st0" cx="67.5" cy="202.5" r="62.5"/>
	<g>
		<g>
			<g>
				<path class="st0" d="M73.4,183.8c-0.5-2.6-1.6-5-3-7.1l3.3-3.3c0.8-0.8,0.8-2,0-2.8l-3.2-3.2c-0.8-0.8-2-0.8-2.8,0l-3.3,3.3
					c-2.1-1.4-4.6-2.4-7.1-3v-4.7c0-1.1-0.9-2-2-2h-4.5c-1.1,0-2,0.9-2,2v4.7c-2.6,0.5-5,1.6-7.1,3l-3.3-3.3c-0.8-0.8-2-0.8-2.8,0
					l-3.2,3.2c-0.8,0.8-0.8,2,0,2.8l3.3,3.3c-1.4,2.1-2.4,4.6-3,7.1h-4.7c-1.1,0-2,0.9-2,2v4.5c0,1.1,0.9,2,2,2h4.7
					c0.5,2.6,1.6,5,3,7.1l-3.3,3.3c-0.8,0.8-0.8,2,0,2.8l3.2,3.2c0.8,0.8,2,0.8,2.8,0l3.3-3.3c2.1,1.4,4.6,2.4,7.1,3"/>
				<path class="st1" d="M36.8,211.4c-1.1,0-2.1-0.4-2.8-1.2l-3.2-3.2c-1.6-1.6-1.6-4.1,0-5.6l2.2-2.2c-0.9-1.5-1.5-3.2-2-4.8h-3.2
					c-2.2,0-4-1.8-4-4v-4.5c0-2.2,1.8-4,4-4H31c0.5-1.7,1.2-3.3,2-4.8l-2.2-2.2c-0.8-0.8-1.2-1.8-1.2-2.8c0-1.1,0.4-2.1,1.2-2.8
					l3.2-3.2c1.5-1.5,4.1-1.5,5.6,0l2.2,2.2c1.5-0.9,3.2-1.5,4.8-2v-3.2c0-2.2,1.8-4,4-4h4.5c2.2,0,4,1.8,4,4v3.2
					c1.7,0.5,3.3,1.2,4.8,2l2.2-2.2c1.5-1.6,4.1-1.6,5.6,0l3.2,3.2c1.6,1.6,1.6,4.1,0,5.6l-2.2,2.2c1.1,2,1.9,4.2,2.4,6.4
					c0.2,1.1-0.5,2.1-1.6,2.4c-1.1,0.2-2.1-0.5-2.4-1.6c-0.5-2.3-1.4-4.5-2.7-6.5c-0.5-0.8-0.4-1.8,0.3-2.5l3.3-3.3l-3.2-3.2
					l-3.3,3.3c-0.7,0.7-1.7,0.8-2.5,0.3c-2-1.3-4.2-2.2-6.5-2.7c-0.9-0.2-1.6-1-1.6-2v-4.7l-4.5,0l0,4.7c0,0.9-0.7,1.8-1.6,2
					c-2.3,0.5-4.5,1.4-6.5,2.7c-0.8,0.5-1.8,0.4-2.5-0.3l-3.3-3.3l-3.2,3.2l3.3,3.3c0.7,0.7,0.8,1.7,0.3,2.5c-1.3,2-2.2,4.2-2.7,6.5
					c-0.2,0.9-1,1.6-2,1.6h-4.7l0,4.5l4.7,0c0.9,0,1.8,0.7,2,1.6c0.5,2.3,1.4,4.5,2.7,6.5c0.5,0.8,0.4,1.8-0.3,2.5l-3.3,3.3l3.2,3.2
					l3.3-3.3c0.7-0.7,1.7-0.8,2.5-0.3c2,1.3,4.2,2.2,6.5,2.7c1.1,0.2,1.8,1.3,1.6,2.4c-0.2,1.1-1.3,1.8-2.4,1.6
					c-2.3-0.5-4.4-1.3-6.4-2.4l-2.2,2.2C38.9,211,37.9,211.4,36.8,211.4z"/>
			</g>
			<g>
				<path class="st0" d="M53,197.5c-5.2,0-9.5-4.2-9.5-9.5s4.2-9.5,9.5-9.5s9.5,4.2,9.5,9.5"/>
				<path class="st1" d="M53,199.5c-6.3,0-11.5-5.1-11.5-11.5s5.1-11.5,11.5-11.5s11.5,5.1,11.5,11.5c0,1.1-0.9,2-2,2s-2-0.9-2-2
					c0-4.1-3.3-7.5-7.5-7.5s-7.5,3.3-7.5,7.5s3.3,7.5,7.5,7.5c1.1,0,2,0.9,2,2S54.1,199.5,53,199.5z"/>
			</g>
		</g>
		<g>
			<g>
				<path class="st0" d="M107.1,212.7h-4.7c-0.5-2.6-1.6-5-3-7.1l3.3-3.3c0.8-0.8,0.8-2,0-2.8l-3.2-3.2c-0.8-0.8-2-0.8-2.8,0
					l-3.3,3.3c-2.1-1.4-4.6-2.4-7.1-3v-4.7c0-1.1-0.9-2-2-2h-4.5c-1.1,0-2,0.9-2,2v4.7c-2.6,0.5-5,1.6-7.1,3l-3.3-3.3
					c-0.8-0.8-2-0.8-2.8,0l-3.2,3.2c-0.8,0.8-0.8,2,0,2.8l3.3,3.3c-1.4,2.1-2.4,4.6-3,7.1h-4.7c-1.1,0-2,0.9-2,2v4.5
					c0,1.1,0.9,2,2,2h4.7c0.5,2.6,1.6,5,3,7.1l-3.3,3.3c-0.8,0.8-0.8,2,0,2.8l3.2,3.2c0.8,0.8,2,0.8,2.8,0l3.3-3.3
					c2.1,1.4,4.6,2.4,7.1,3v4.7c0,1.1,0.9,2,2,2h4.5c1.1,0,2-0.9,2-2v-4.7c2.6-0.5,5-1.6,7.1-3l3.3,3.3c0.8,0.8,2,0.8,2.8,0l3.2-3.2
					c0.8-0.8,0.8-2,0-2.8l-3.3-3.3c1.4-2.1,2.4-4.6,3-7.1h4.7c1.1,0,2-0.9,2-2v-4.5C109.1,213.6,108.2,212.7,107.1,212.7z"/>
				<path class="st1" d="M84.3,246h-4.5c-2.2,0-4-1.8-4-4v-3.2c-1.7-0.5-3.3-1.2-4.8-2l-2.2,2.2c-1.5,1.5-4.1,1.5-5.6,0l-3.2-3.2
					c-1.6-1.6-1.6-4.1,0-5.6l2.2-2.2c-0.9-1.5-1.5-3.2-2-4.8h-3.2c-2.2,0-4-1.8-4-4v-4.5c0-2.2,1.8-4,4-4h3.2c0.5-1.7,1.2-3.3,2-4.8
					l-2.2-2.2c-1.6-1.6-1.6-4.1,0-5.6l3.2-3.2c1.5-1.5,4.1-1.5,5.6,0l2.2,2.2c1.5-0.9,3.2-1.5,4.8-2v-3.2c0-2.2,1.8-4,4-4h4.5
					c2.2,0,4,1.8,4,4v3.2c1.7,0.5,3.3,1.2,4.8,2l2.2-2.2c1.5-1.6,4.1-1.6,5.6,0l3.2,3.2c0.8,0.8,1.2,1.8,1.2,2.8
					c0,1.1-0.4,2.1-1.2,2.8l-2.2,2.2c0.9,1.5,1.5,3.2,2,4.8h3.2c2.2,0,4,1.8,4,4v4.5c0,2.2-1.8,4-4,4H104c-0.5,1.7-1.2,3.3-2,4.8
					l2.2,2.2c0.8,0.8,1.2,1.8,1.2,2.8c0,1.1-0.4,2.1-1.2,2.8l-3.2,3.2c-1.6,1.5-4.1,1.6-5.6,0l-2.2-2.2c-1.5,0.9-3.2,1.5-4.8,2v3.2
					C88.3,244.3,86.5,246,84.3,246z M70.6,232.4c0.4,0,0.8,0.1,1.1,0.3c2,1.3,4.2,2.2,6.5,2.7c0.9,0.2,1.6,1,1.6,2v4.7l4.5,0l0-4.7
					c0-0.9,0.7-1.8,1.6-2c2.3-0.5,4.5-1.4,6.5-2.7c0.8-0.5,1.8-0.4,2.5,0.3l3.3,3.3l3.2-3.2l-3.3-3.3c-0.7-0.7-0.8-1.7-0.3-2.5
					c1.3-2,2.2-4.2,2.7-6.5c0.2-0.9,1-1.6,2-1.6h4.7l0-4.5h-4.7c-0.9,0-1.8-0.7-2-1.6c-0.5-2.3-1.4-4.5-2.7-6.5
					c-0.5-0.8-0.4-1.8,0.3-2.5l3.3-3.3l-3.2-3.2l-3.3,3.3c-0.7,0.7-1.7,0.8-2.5,0.3c-2-1.3-4.2-2.2-6.5-2.7c-0.9-0.2-1.6-1-1.6-2
					v-4.7l-4.5,0l0,4.7c0,0.9-0.7,1.8-1.6,2c-2.3,0.5-4.5,1.4-6.5,2.7c-0.8,0.5-1.8,0.4-2.5-0.3l-3.3-3.3l-3.2,3.2l3.3,3.3
					c0.7,0.7,0.8,1.7,0.3,2.5c-1.3,2-2.2,4.2-2.7,6.5c-0.2,0.9-1,1.6-2,1.6h-4.7l0,4.5l4.7,0c0.9,0,1.8,0.7,2,1.6
					c0.5,2.3,1.4,4.5,2.7,6.5c0.5,0.8,0.4,1.8-0.3,2.5l-3.3,3.3l3.2,3.2l3.3-3.3C69.6,232.6,70.1,232.4,70.6,232.4z M107.1,214.7
					L107.1,214.7L107.1,214.7z"/>
			</g>
			<g>
				<circle class="st0" cx="82" cy="217" r="9.5"/>
				<path class="st1" d="M82,228.4c-6.3,0-11.5-5.1-11.5-11.5s5.1-11.5,11.5-11.5s11.5,5.1,11.5,11.5S88.3,228.4,82,228.4z
					 M82,209.5c-4.1,0-7.5,3.3-7.5,7.5s3.3,7.5,7.5,7.5c4.1,0,7.5-3.3,7.5-7.5S86.1,209.5,82,209.5z"/>
			</g>
		</g>
	</g>
</g>
<g>
	<circle class="st0" cx="67.5" cy="337.5" r="62.5"/>
	<path class="st1" d="M101.8,374.1H33.2c-1.4,0-2.5-1.1-2.5-2.5v-15c0-3.7,3-6.8,6.8-6.8c2.3,0,4.4,0.9,6,2.6c1.7,1.7,4,2.7,6.5,2.7
		c2.5,0,4.8-1,6.5-2.8c1.7-1.8,2.6-4.2,2.5-6.6c-0.2-4.4-4.3-8.5-8.7-8.7c-2.6-0.1-5,0.9-6.8,2.7c-1.6,1.7-3.8,2.6-6,2.6
		c-3.8,0-6.9-3-6.9-6.8v-15c0-1.4,1.1-2.5,2.5-2.5h29c1.2,0,2.3-1,2.3-2.3v-0.7c0-0.9-0.4-1.7-1.1-2.4c-2.8-2.8-4.4-6.6-4.2-10.6
		c0.3-7,6.5-13.2,13.5-13.5c3.9-0.1,7.5,1.2,10.3,3.9c2.8,2.7,4.3,6.3,4.3,10.1c0,3.8-1.5,7.4-4.2,10c-0.7,0.7-1.1,1.5-1.1,2.4v0.7
		c0,1.2,1,2.3,2.3,2.3h17.6c1.4,0,2.5,1.1,2.5,2.5v51.1C104.3,373,103.2,374.1,101.8,374.1z M35.7,369.1h63.7V323H84.2
		c-4,0-7.3-3.3-7.3-7.3v-0.7c0-2.2,0.9-4.3,2.6-6c1.7-1.7,2.7-4,2.7-6.5c0-2.5-1-4.8-2.8-6.5c-1.8-1.7-4.1-2.6-6.6-2.5
		c-4.4,0.2-8.5,4.3-8.7,8.7c-0.1,2.6,0.9,5,2.7,6.8c1.7,1.6,2.6,3.8,2.6,6v0.7c0,4-3.3,7.3-7.3,7.3H35.7v12.5c0,1,0.8,1.8,1.8,1.8
		c0.9,0,1.8-0.4,2.5-1.1c2.8-2.8,6.6-4.4,10.6-4.2c7,0.3,13.2,6.5,13.5,13.5c0.1,3.9-1.2,7.5-3.9,10.3c-2.7,2.8-6.3,4.3-10.1,4.3
		c-3.8,0-7.4-1.5-10-4.2c-0.7-0.7-1.5-1.1-2.4-1.1c-1.1,0-1.9,0.8-1.9,1.8V369.1z"/>
</g>
<g>
	<circle class="st0" cx="67.5" cy="472.5" r="62.5"/>
	<g>
		<path class="st1" d="M83.6,459.4H51.4c-0.9,0-1.7-0.7-1.7-1.7s0.7-1.7,1.7-1.7h32.1c0.9,0,1.7,0.7,1.7,1.7S84.5,459.4,83.6,459.4z
			"/>
		<path class="st1" d="M83.6,473H51.4c-0.9,0-1.7-0.7-1.7-1.7s0.7-1.7,1.7-1.7h32.1c0.9,0,1.7,0.7,1.7,1.7S84.5,473,83.6,473z"/>
		<path class="st1" d="M83.6,486.6H51.4c-0.9,0-1.7-0.7-1.7-1.7s0.7-1.7,1.7-1.7h32.1c0.9,0,1.7,0.7,1.7,1.7S84.5,486.6,83.6,486.6z
			"/>
		<path class="st1" d="M83.6,500.3H51.4c-0.9,0-1.7-0.7-1.7-1.7s0.7-1.7,1.7-1.7h32.1c0.9,0,1.7,0.7,1.7,1.7S84.5,500.3,83.6,500.3z
			"/>
		<g>
			<path class="st1" d="M90,515.1H45c-5.4,0-9.7-4.4-9.7-9.7v-65.9c0-5.4,4.4-9.7,9.7-9.7h35.2c2.3,0,4.5,0.9,6.2,2.5l10.5,9.9
				c1.8,1.7,2.9,4.1,2.9,6.6v56.7C99.8,510.7,95.4,515.1,90,515.1z M45,434.9c-2.5,0-4.5,2-4.5,4.5v65.9c0,2.5,2,4.5,4.5,4.5H90
				c2.5,0,4.5-2,4.5-4.5v-56.7c0-1.1-0.4-2.1-1.2-2.8L82.8,436c-0.7-0.7-1.6-1-2.6-1H45z"/>
			<path class="st1" d="M95.4,450.2H84c-3.1,0-5.7-2.6-5.7-5.7V434c0-1.5,1.2-2.6,2.6-2.6s2.6,1.2,2.6,2.6v10.5
				c0,0.2,0.2,0.4,0.4,0.4h11.4c1.5,0,2.6,1.2,2.6,2.6S96.9,450.2,95.4,450.2z"/>
		</g>
	</g>
</g>
</svg>
