<?xml version="1.0" encoding="utf-8"?>
<!-- Generator: Adobe Illustrator 24.3.0, SVG Export Plug-In . SVG Version: 6.00 Build 0)  -->
<svg version="1.1" id="Layer_1" xmlns="http://www.w3.org/2000/svg" xmlns:xlink="http://www.w3.org/1999/xlink" x="0px" y="0px"
	 viewBox="0 0 130 130" style="enable-background:new 0 0 130 130;" xml:space="preserve">
<style type="text/css">
	.st0{fill-rule:evenodd;clip-rule:evenodd;fill:#181616;}
	.st1{fill:#181616;}
</style>
<g>
	<path class="st0" d="M64.6,5.6C31.2,5.6,4.2,32.6,4.2,66c0,26.7,17.3,49.3,41.3,57.3c3,0.6,4.1-1.3,4.1-2.9c0-1.4-0.1-6.2-0.1-11.2
		c-16.8,3.7-20.3-7.1-20.3-7.1c-2.7-7-6.7-8.8-6.7-8.8c-5.5-3.7,0.4-3.7,0.4-3.7c6.1,0.4,9.3,6.2,9.3,6.2c5.4,9.2,14.1,6.6,17.6,5
		c0.5-3.9,2.1-6.6,3.8-8.1C40.1,91.2,26,86,26,62.8c0-6.6,2.4-12,6.2-16.2c-0.6-1.5-2.7-7.7,0.6-16c0,0,5.1-1.6,16.6,6.2
		c4.8-1.3,10-2,15.1-2c5.1,0,10.3,0.7,15.1,2c11.5-7.8,16.6-6.2,16.6-6.2c3.3,8.3,1.2,14.5,0.6,16c3.9,4.2,6.2,9.6,6.2,16.2
		c0,23.2-14.1,28.3-27.6,29.8c2.2,1.9,4.1,5.5,4.1,11.2c0,8.1-0.1,14.6-0.1,16.6c0,1.6,1.1,3.5,4.1,2.9c24-8,41.3-30.6,41.3-57.3
		C125,32.6,97.9,5.6,64.6,5.6z"/>
	<path class="st1" d="M27.1,92.3c-0.1,0.3-0.6,0.4-1,0.2c-0.4-0.2-0.7-0.6-0.5-0.9c0.1-0.3,0.6-0.4,1-0.2C27,91.6,27.2,92,27.1,92.3
		L27.1,92.3z M26.3,91.8"/>
	<path class="st1" d="M29.5,95c-0.3,0.3-0.9,0.1-1.2-0.3c-0.4-0.4-0.5-1-0.2-1.3c0.3-0.3,0.8-0.1,1.2,0.3
		C29.7,94.2,29.8,94.8,29.5,95L29.5,95z M28.9,94.4"/>
	<path class="st1" d="M31.9,98.5c-0.4,0.3-1,0-1.3-0.5c-0.4-0.5-0.4-1.2,0-1.4c0.4-0.3,1,0,1.3,0.5C32.3,97.6,32.3,98.3,31.9,98.5
		L31.9,98.5z M31.9,98.5"/>
	<path class="st1" d="M35.1,101.9c-0.3,0.4-1,0.3-1.6-0.2c-0.5-0.5-0.7-1.2-0.3-1.5c0.3-0.4,1-0.3,1.6,0.2
		C35.3,100.8,35.5,101.5,35.1,101.9L35.1,101.9z M35.1,101.9"/>
	<path class="st1" d="M39.6,103.8c-0.1,0.5-0.8,0.7-1.5,0.5c-0.7-0.2-1.1-0.8-1-1.2c0.1-0.5,0.8-0.7,1.5-0.5
		C39.3,102.8,39.8,103.3,39.6,103.8L39.6,103.8z M39.6,103.8"/>
	<path class="st1" d="M44.6,104.2c0,0.5-0.6,0.9-1.3,0.9c-0.7,0-1.3-0.4-1.3-0.9c0-0.5,0.6-0.9,1.3-0.9
		C44,103.3,44.6,103.7,44.6,104.2L44.6,104.2z M44.6,104.2"/>
	<path class="st1" d="M49.2,103.4c0.1,0.5-0.4,1-1.1,1.1c-0.7,0.1-1.3-0.2-1.4-0.7c-0.1-0.5,0.4-1,1.1-1.1
		C48.5,102.6,49.1,102.9,49.2,103.4L49.2,103.4z M49.2,103.4"/>
</g>
</svg>
