<?xml version="1.0" encoding="UTF-8" standalone="no"?>
<!-- Generator: Adobe Illustrator 25.0.0, SVG Export Plug-In . SVG Version: 6.00 Build 0)  -->

<svg
   version="1.1"
   id="Ebene_1"
   x="0px"
   y="0px"
   viewBox="0 0 85.000002 84.999998"
   xml:space="preserve"
   sodipodi:docname="IFMLO_WH_O_30_0009.svg"
   width="85"
   height="85"
   inkscape:version="1.1.1 (eb90963e84, 2021-10-02)"
   xmlns:inkscape="http://www.inkscape.org/namespaces/inkscape"
   xmlns:sodipodi="http://sodipodi.sourceforge.net/DTD/sodipodi-0.dtd"
   xmlns="http://www.w3.org/2000/svg"
   xmlns:svg="http://www.w3.org/2000/svg"><defs
   id="defs902" /><sodipodi:namedview
   id="namedview900"
   pagecolor="#ffffff"
   bordercolor="#666666"
   borderopacity="1.0"
   inkscape:pageshadow="2"
   inkscape:pageopacity="0.0"
   inkscape:pagecheckerboard="true"
   showgrid="false"
   inkscape:zoom="1.0024944"
   inkscape:cx="42.394254"
   inkscape:cy="37.90545"
   inkscape:window-width="1920"
   inkscape:window-height="1043"
   inkscape:window-x="1920"
   inkscape:window-y="77"
   inkscape:window-maximized="1"
   inkscape:current-layer="Ebene_1"
   fit-margin-top="0"
   fit-margin-left="0"
   fit-margin-right="0"
   fit-margin-bottom="0" />
<style
   type="text/css"
   id="style887">
	.st0{fill-rule:evenodd;clip-rule:evenodd;fill:#FFFFFF;}
	.st1{fill-rule:evenodd;clip-rule:evenodd;fill:#FFFFFF;stroke:#FFFFFF;stroke-width:0.2835;stroke-miterlimit:3.8637;}
</style>
<g
   id="g897"
   transform="translate(-255.1,-382.7)">
	<g
   id="g893">
		<path
   class="st0"
   d="m 278.3,405.3 c 0.4,0.9 0.6,1.8 0.6,2.8 0,3.9 -3.2,7.1 -7.1,7.1 -3.9,0 -7.1,-3.2 -7.1,-7.1 0,-3.9 3.2,-7.1 7.1,-7.1 1.5,0 2.8,0.4 4,1.2 v -1.8 c 0,-3.4 2.8,-6.2 6.2,-6.2 h 17.4 v 10.4 h -10.1 c -0.2,0 -0.4,0.2 -0.4,0.4 v 6.3 c 0,0.2 0.2,0.4 0.4,0.4 h 10.1 v 8.7 h -9.8 c -0.4,0 -0.6,0.3 -0.6,0.6 v 22.3 h 7.9 v -15.9 c 0,-1.3 1,-2.3 2.3,-2.3 h 2.9 c 1.3,0 2.3,1 2.3,2.3 v 15.9 h 7.9 v -15.9 c 0,-1.3 1,-2.3 2.3,-2.3 h 2.9 c 1.3,0 2.3,1 2.3,2.3 v 15.9 h 7.9 V 421 c 0,-0.4 -0.3,-0.6 -0.6,-0.6 h -25.2 v -2.6 h 26.2 c 1.3,0 2.3,1 2.3,2.3 V 446 h -13.1 v -17.7 c 0,-0.2 -0.2,-0.4 -0.4,-0.4 H 315 c -0.2,0 -0.4,0.2 -0.4,0.4 V 446 h -13.1 v -17.7 c 0,-0.2 -0.2,-0.4 -0.4,-0.4 h -1.5 c -0.2,0 -0.4,0.2 -0.4,0.4 V 446 H 270 v -2.6 h 5.6 v -22.3 c 0,-0.4 -0.3,-0.6 -0.6,-0.6 h -7.3 V 446 h -2.6 v -28.2 h 10.8 c 1.3,0 2.3,1 2.3,2.3 v 23.3 h 7.9 v -23.3 c 0,-1.3 1,-2.3 2.3,-2.3 h 8.2 v -3.6 h -8.2 c -1.3,0 -2.3,-1 -2.3,-2.3 v -7.8 c 0,-1.3 1,-2.3 2.3,-2.3 h 8.2 v -5.2 h -14.8 c -2,0 -3.6,1.6 -3.6,3.6 v 5.1 z m -11.1,2.8 c 0,-2.5 2,-4.5 4.5,-4.5 2.5,0 4.5,2 4.5,4.5 0,2.5 -2,4.5 -4.5,4.5 -2.4,0 -4.5,-2 -4.5,-4.5 z"
   id="path889" />
		<path
   class="st0"
   d="m 257.2,425.2 c 0,-22.4 18.1,-40.5 40.5,-40.5 22.4,0 40.5,18.1 40.5,40.5 0,22.4 -18.1,40.5 -40.5,40.5 -22.4,0 -40.5,-18.1 -40.5,-40.5 z m -2.1,0 c 0,-23.5 19,-42.5 42.5,-42.5 23.5,0 42.5,19 42.5,42.5 0,23.5 -19,42.5 -42.5,42.5 -23.4,0 -42.5,-19 -42.5,-42.5 z"
   id="path891" />
	</g>
	<path
   class="st1"
   d="m 264.7,408.1 c 0,-3.9 3.2,-7.1 7.1,-7.1 3.9,0 7.1,3.2 7.1,7.1 0,3.9 -3.2,7.1 -7.1,7.1 -4,0 -7.1,-3.2 -7.1,-7.1 z m 2.5,0 c 0,-2.5 2,-4.5 4.5,-4.5 2.5,0 4.5,2 4.5,4.5 0,2.5 -2,4.5 -4.5,4.5 -2.4,0 -4.5,-2 -4.5,-4.5 z"
   id="path895" />
</g>
</svg>
