<?xml version="1.0" encoding="utf-8"?>
<!-- Generator: Adobe Illustrator 24.3.0, SVG Export Plug-In . SVG Version: 6.00 Build 0)  -->
<svg version="1.1" id="Layer_1" xmlns="http://www.w3.org/2000/svg" xmlns:xlink="http://www.w3.org/1999/xlink" x="0px" y="0px"
	 viewBox="0 0 500 500" style="enable-background:new 0 0 500 500;" xml:space="preserve">
<style type="text/css">
	.st0{fill:#FFFFFF;}
	.st1{fill-rule:evenodd;clip-rule:evenodd;fill:#FFFFFF;}
</style>
<path class="st0" d="M410.9,238H272.5l0,13.7h133.3c1.9,0,3.4,1.5,3.4,3.4v81.1v37.1h-41.8v-37.1v-46.9c0-6.6-5.4-12-12-12H340
	c-6.6,0-12,5.4-12,12v46.9v37.1h-41.8v-37.1v-46.9c0-6.6-5.4-12-12-12h-15.4c-6.6,0-12,5.4-12,12v46.9v37.1H205v-37.1v-81.1
	c0-1.9,1.5-3.4,3.4-3.4h52.1v-46.3H207c-1.1,0-2-0.9-2-2.1v-33.6c0-1.1,0.9-2.1,2-2.1h53.5v-54.8h-92.2c-18,0-32.5,14.6-32.5,32.6
	v9.8c-6-4-13.2-6.4-20.9-6.4c-20.8,0-37.7,16.9-37.7,37.7c0,20.8,16.9,37.7,37.7,37.7c20.8,0,37.7-16.9,37.7-37.7
	c0-5.3-1.1-10.4-3.1-15v-26.1c0-10.4,8.4-18.8,18.8-18.8h78.5V154h-43.5c-6.6,0-12,5.4-12,12v41.1c0,6.6,5.4,12,12,12h43.5V238
	h-43.5c-6.6,0-12,5.4-12,12v86.3v37.1h-41.8v-37.1V250c0-6.6-5.4-12-12-12H80.2v98.3v50.8h13.7v-50.8v-84.6h38.4
	c1.9,0,3.4,1.5,3.4,3.4v81.1v37.1h-29.9v13.7h154.6v-50.8v-43.1c0-1.1,0.9-2.1,2.1-2.1h7.9c1.1,0,2.1,0.9,2.1,2.1v43.1v50.8h69.2
	v-50.8v-43.1c0-1.1,1-2.1,2.1-2.1h7.9c1.1,0,2,0.9,2,2.1v43.1v50.8h69.2v-50.8V250C422.9,243.4,417.6,238,410.9,238z M114.8,210.6
	c-13.2,0-24-10.7-24-24c0-13.3,10.8-24,24-24c13.2,0,24,10.7,24,24C138.8,199.8,128.1,210.6,114.8,210.6z"/>
<path class="st1" d="M250,25C125.7,25,25,125.7,25,250c0,25.4,4.2,49.8,12,72.6C67.2,411.3,151.1,475,250,475
	c98.9,0,182.8-63.7,213-152.4c7.8-22.8,12-47.2,12-72.6C475,125.7,374.3,25,250,25z M451.6,322.6C421.8,405.2,342.8,464.2,250,464.2
	c-92.8,0-171.8-59-201.6-141.6c-8.2-22.7-12.6-47.1-12.6-72.6c0-118.3,95.9-214.2,214.2-214.2c118.3,0,214.2,95.9,214.2,214.2
	C464.2,275.5,459.8,299.9,451.6,322.6z"/>
</svg>
