<?xml version="1.0" encoding="utf-8"?>
<!-- Generator: Adobe Illustrator 24.3.0, SVG Export Plug-In . SVG Version: 6.00 Build 0)  -->
<svg version="1.1"
	 id="Layer_1" xmlns:cc="http://creativecommons.org/ns#" xmlns:dc="http://purl.org/dc/elements/1.1/" xmlns:rdf="http://www.w3.org/1999/02/22-rdf-syntax-ns#"
	 xmlns="http://www.w3.org/2000/svg" xmlns:xlink="http://www.w3.org/1999/xlink" x="0px" y="0px" viewBox="0 0 200 600"
	 style="enable-background:new 0 0 200 600;" xml:space="preserve">
<style type="text/css">
	.st0{clip-path:url(#SVGID_1_);}
	.st1{clip-path:url(#SVGID_2_);}
	.st2{clip-path:url(#SVGID_3_);}
	.st3{clip-path:url(#SVGID_4_);}
	.st4{clip-path:url(#SVGID_5_);}
</style>
<g>
	<g transform="translate(-3.3359375,285.2793)">
		<path d="M101.5-216c0,0.4-0.4,0.4-0.4,0.4h-0.4c-0.4,0-0.4-0.4-0.8-0.8c0,0-0.4-0.4-0.4-0.8s0-0.4,0.4-0.4l0.8,0.4
			C101.2-216.8,101.5-216.4,101.5-216 M94.5-219.9c0-2-0.8-3.1-2-3.1c0,0,0,0.4-0.4,0.4v0.8h1.2c0,0.8,0.4,1.2,0.4,2H94.5
			 M108.2-221.9c0.8,0,1.2,0.8,1.6,2h0.8c-0.4-0.4-0.4-0.8-0.4-1.2s0-0.8-0.4-1.2c-0.4-0.4-0.8-0.8-1.2-0.8c0,0-0.4,0.4-0.8,0.4
			C107.8-222.3,108.2-222.3,108.2-221.9 M96.5-215.6c-0.4,0-0.4,0-0.4-0.4s0-0.8,0.4-1.2c0.8,0,1.2-0.4,1.2-0.4
			c0.4,0,0.4,0.4,0.4,0.4c0,0.4-0.4,0.8-1.2,1.6H96.5 M92.1-216c-1.6-0.8-2-2-2-3.9c0-1.2,0-2,0.8-2.7c0.4-0.8,1.2-1.2,2-1.2
			c0.8,0,1.2,0.4,2,1.2c0.4,1.2,0.8,2.4,0.8,3.5v0.4v0.4h0.4v-0.4c0.4,0,0.4-0.8,0.4-2.4c0-1.2,0-2.4-0.8-3.5s-1.6-2-3.1-2
			c-1.2,0-2.4,0.8-2.7,2c-0.8,1.6-0.9,2.7-0.9,4.7c0,1.6,0.5,3.1,2.1,4.7C91.4-215.6,91.8-215.6,92.1-216 M141.1-160.7
			c0.4,0,0.4-0.2,0.4-0.5c0-0.9-0.4-1.9-1.6-3c-1.2-1.2-3.1-1.9-5.5-2.2c-0.4,0-0.8,0-0.8,0c-0.4-0.1-0.4-0.1-0.8-0.1
			c-0.4,0-1.2-0.1-1.6-0.2c1.2-3.6,1.6-6.9,1.6-9.7c0-3.9-0.8-6.7-2.4-9c-1.6-2.4-3.1-3.5-5.1-3.9c-0.4,0.4-0.4,0.4-0.4,0.8
			c2,0.8,3.9,2.4,5.1,4.7c1.2,2.7,1.6,5.1,1.6,7.8c0,2.2-0.4,5.4-2,9.6c-1.6,0.6-3.1,2.1-4.3,4.3c0,0.4,0,0.5,0.4,0.5
			c0,0,0.4-0.4,0.8-1c0.8-0.7,1.2-1.3,2-2c1.2-0.7,2-1,3.1-1c2,0,3.9,0.3,5.1,0.8c1.6,0.5,2.4,1.1,2.7,1.7c0.4,0.6,0.8,1.1,1.2,1.6
			C140.7-161,141.1-160.7,141.1-160.7 M105.1-217.6c-0.4-0.4-0.4-1.2-0.4-2c0-1.6,0-2.4,0.8-3.5c0.8-0.8,1.6-1.2,2.4-1.2
			c1.2,0,2,0.8,2.7,1.6c0.4,1.2,0.8,2,0.8,3.1c0,2-0.8,3.1-2.4,3.5c0,0,0.4,0.4,0.8,0.4c0.8,0,1.2,0.4,2,0.8
			c0.4-2.4,0.8-3.9,0.8-5.9c0-2.4-0.4-3.9-1.2-5.1c-1.2-1.2-2.4-1.6-3.9-1.6c-1.2,0-2.4,0.4-3.5,1.2c-0.8,1.2-1.2,2-1.2,3.1
			c0,2,0.4,3.5,1.2,5.1C104.3-217.9,104.7-217.6,105.1-217.6 M109.8-211.3c-5.1,3.5-9,5.1-12.1,5.1c-2.7,0-5.5-1.2-7.8-3.1
			c0.4,0.8,0.8,1.6,1.2,2l2.4,2.4c1.6,1.6,3.5,2.4,5.5,2.4c2.7,0,5.9-1.6,9.8-4.3l3.5-2.4c0.8-0.8,1.6-1.6,1.6-2.7
			c0-0.4,0-0.8-0.4-0.8c-0.4-0.8-2.4-2-6.3-3.1c-3.5-1.6-6.3-2.4-7.8-2.4c-1.2,0-3.1,0.8-5.9,2.4c-2.4,1.6-3.9,3.1-3.9,4.7
			c0,0,0.4,0.4,0.8,1.2c2.4,2,4.7,3.1,7.1,3.1c3.1,0,7.1-1.6,12.1-5.5v0.8C109.8-211.7,109.8-211.3,109.8-211.3 M118.8-132.2
			c1.6,2.9,4.3,4.4,7.4,4.4c0.8,0,1.6-0.1,2.4-0.4c0.8-0.2,1.6-0.4,2-0.7c0.4-0.3,0.8-0.5,1.2-0.9c0.8-0.3,0.8-0.5,1.2-0.7l6.7-5.8
			c1.6-1.2,3.1-2.3,5.1-3.3c1.6-0.9,3.1-1.6,3.9-1.9c1.2-0.3,2-0.8,2.7-1.4c0.4-0.6,0.8-1.3,0.8-2.3c0-1.1-0.8-2-1.6-2.6
			s-1.6-1.1-2.4-1.3s-1.6-0.9-2.7-2c-0.8-1-1.6-2.4-2-4.3l-0.4-2.3c-0.4-1.1-0.4-1.8-0.8-2.3c0-0.1,0-0.2-0.4-0.2s-1.2,0.4-1.6,1
			c-0.8,0.7-1.6,1.4-2.4,2.2c-0.4,0.8-1.6,1.5-2.4,2.2c-1.2,0.7-2.4,1-3.1,1c-3.1,0-4.7-0.9-5.9-2.5c-0.8-1.3-1.2-2.7-1.6-4.3
			c-0.8-0.7-1.2-1-2-1c-2,0-2.7,2-2.7,6.2v1.3v4.5v3.5v1.7v1.2c0,0.4-0.4,1.1-0.4,2.4c-0.4,1.2-0.4,2.6-0.4,4.2L118.8-132.2
			L118.8-132.2 M62-134.2c3.6,0.5,7.8,1.7,12.6,3.4c4.7,1.7,7.6,2.6,8.7,2.6c2.7,0,5-1.2,6.9-3.6c0.4-0.8,0.4-1.7,0.4-2.7
			c0-3.7-2.2-8.4-6.7-14.1l-2.7-3.6c-0.5-0.7-1.2-1.9-2.1-3.4c-0.8-1.5-1.6-2.7-2.2-3.5c-0.5-0.9-1.3-1.8-2.4-2.7
			c-1-0.9-2.2-1.5-3.5-1.8c-1.6,0.3-2.8,0.9-3.3,1.6c-0.5,0.7-0.9,1.6-0.9,2.4c-0.1,0.8-0.4,1.4-0.7,1.6c-0.4,0.2-1.1,0.4-2,0.6
			c-0.2,0-0.5,0-1.1,0H62c-2.1,0-3.5,0.2-4.2,0.6c-1,1.1-1.5,2.4-1.5,3.8c0,0.6,0.2,1.7,0.5,3.2c0.3,1.4,0.5,2.6,0.5,3.4
			c0,1.6-0.5,3.2-1.4,4.8c-1,1.7-1.5,2.9-1.5,3.8C54.7-135.9,57.2-134.9,62-134.2 M75-169.9c0-2.7,0.7-5.7,2.2-9.2
			c1.4-3.5,2.8-5.9,4.2-7.4c-0.1-0.4-0.3-0.4-0.6-0.4l-0.4-0.4c-1.1,1.2-2.5,3.9-4.2,7.8c-1.6,3.5-2.5,6.8-2.5,9.2
			c0,1.8,0.4,3.3,1.2,4.6c0.9,1.3,2.9,3.2,6.2,5.6l4.2,2.7c4.4,3.8,6.8,6.5,6.8,8.1c0,0.8-0.4,1.6-1.6,2.5c-0.8,0.9-1.8,1.4-2.7,1.4
			c-0.1,0-0.1,0.1-0.1,0.3c0,0,0.4,0.8,1.2,2.4c1.6,2.2,5.2,3.3,9.9,3.3c8.6,0,15.3-3.5,20.4-10.6c0-2,0-3.2-0.4-3.7v-1.4
			c0-2.5,0.4-4.5,1.2-5.7c0.8-1.3,1.6-1.8,2.7-1.8c0.8,0,1.6,0.3,2.4,0.9c0.4-3,0.4-5.6,0.4-8c0-3.6,0-6.5-0.8-9.2
			c-0.4-2.4-1.2-4.3-2-5.9c-0.8-1.2-1.6-2.4-2.4-3.5c-0.8-1.2-1.2-2.4-2-3.5c-0.4-1.6-0.8-2.7-0.8-4.7c-1.2-2-2-3.9-3.1-5.9
			c-0.8-2-1.6-3.9-2.4-5.5l-3.5,2.7c-3.9,2.7-7.1,3.9-9.8,3.9c-2.4,0-4.3-0.4-5.5-2l-2.4-2c0,1.2-0.4,2.7-1.2,4.3l-2.5,4.7
			c-1.1,2.7-1.7,4.3-1.8,5.5c-0.2,0.8-0.3,1.6-0.4,1.6l-2.9,5.9c-3.2,5.9-4.8,11.3-4.8,15.8c0,0.9,0.1,1.8,0.2,2.8
			C75.9-166,75-167.7,75-169.9 M103.1-132.8c-5.1,0-9,0.7-11.8,2.1v-0.1c-2,2.4-4.2,3.6-7.2,3.6c-1.9,0-4.9-0.7-9-2.2
			c-4.1-1.4-7.8-2.5-10.9-3.2c-0.3-0.1-1-0.2-2.2-0.4c-1.1-0.2-2.1-0.4-3-0.5c-0.8-0.2-1.8-0.4-2.8-0.8c-1-0.3-1.8-0.7-2.4-1.2
			c-0.5-0.5-0.8-1-0.8-1.7c0-0.6,0.1-1.3,0.4-2c0.3-0.4,0.5-0.9,0.8-1.3c0.3-0.4,0.5-0.8,0.7-1.2c0.2-0.4,0.4-0.7,0.5-1.1
			c0.2-0.4,0.3-0.7,0.4-1.1c0.1-0.4,0.2-0.8,0.2-1.2s-0.2-1.6-0.5-3.6c-0.3-2-0.5-3.3-0.5-3.9c0-1.7,0.4-3.1,1.3-4.1
			c0.9-1,1.7-1.5,2.5-1.5h4.5c0.4,0,0.9-0.2,1.7-0.7c0.3-0.6,0.5-1.1,0.7-1.6c0.2-0.5,0.3-0.8,0.4-1c0.1-0.2,0.2-0.5,0.2-0.7
			c0.2-0.3,0.4-0.6,0.6-0.9c-0.3-0.4-0.5-0.9-0.5-1.5c0-0.4,0-0.8,0.1-1.1c0-1.4,0.7-3.4,2.1-6l1.4-2.5c1.1-2.1,2-3.7,2.6-5.2
			c0.7-1.6,1.4-3.9,2.2-7.1c0.6-2.7,2.1-5.5,4.5-8.2l2.9-3.5c2-2.4,3.4-4.3,4.1-5.9c0.7-1.6,1.1-3.5,1.1-5.1c0-0.8-0.2-3.1-0.6-7.1
			c-0.4-3.9-0.6-7.8-0.6-11.4c0-2.7,0.2-4.7,0.7-6.7c0.5-2,1.4-3.9,2.7-5.5c1.2-1.6,2.7-3.1,5.1-3.9c2.4-0.8,5.1-1.2,8.2-1.2
			c1.2,0,2.4,0,3.5,0.4c1.2,0,2.7,0.4,4.7,1.2c1.6,0.8,3.1,1.6,4.3,2.7c1.6,1.2,2.7,3.1,3.9,5.1c0.8,2.4,1.6,4.7,2,7.8
			c0.4,2,0.4,3.9,0.8,6.7c0,2.4,0.4,3.9,0.4,5.1c0.4,1.2,0.4,2.7,0.8,4.7c0.4,1.6,0.8,3.1,1.6,4.3c0.8,1.6,1.6,3.1,2.7,4.7
			c1.2,2,2.7,3.9,4.3,6.3c3.5,3.9,6.3,8.2,7.8,12.5c2,3.9,3.1,9,3.1,14.5c0,2.7-0.4,5.3-1.2,7.9c0.8,0,1.2,0.3,1.6,0.9
			c0.4,0.5,0.8,1.7,1.2,3.6l0.4,2.9c0.4,0.9,0.8,1.7,2,2.4c0.8,0.7,1.6,1.3,2.7,1.8c0.8,0.4,2,0.9,2.7,1.6c0.8,0.8,1.2,1.6,1.2,2.5
			c0,1.3-0.4,2.3-1.2,3c-0.8,0.8-1.6,1.3-2.7,1.7c-0.8,0.4-2.4,1.2-4.7,2.3c-2,1.2-3.9,2.6-5.9,4.2l-3.9,3.3
			c-1.6,1.5-3.1,2.6-4.3,3.3c-1.2,0.7-2.7,1.1-4.3,1.1l-2.7-0.3c-3.1-0.8-5.1-2.4-6.3-4.8C111.3-132.4,106.2-132.8,103.1-132.8"/>
	</g>
	<g id="surface839">
		<g>
			<defs>
				<rect id="SVGID_11_" x="6.3" y="275.8" width="10.7" height="11.2"/>
			</defs>
			<clipPath id="SVGID_1_">
				<use xlink:href="#SVGID_11_"  style="overflow:visible;"/>
			</clipPath>
			<g id="g22" class="st0">
				<path id="path24" d="M16.8,281.3c0,3-2.4,5.5-5.3,5.5c-2.9,0-5.3-2.5-5.3-5.5c0-3,2.4-5.5,5.3-5.5
					C14.5,275.9,16.8,278.3,16.8,281.3"/>
			</g>
		</g>
		<g>
			<defs>
				<rect id="SVGID_13_" x="6.3" y="294.2" width="10.7" height="11.7"/>
			</defs>
			<clipPath id="SVGID_2_">
				<use xlink:href="#SVGID_13_"  style="overflow:visible;"/>
			</clipPath>
			<g id="g26" class="st1">
				<path id="path28" d="M16.8,300c0,3-2.4,5.5-5.3,5.5c-2.9,0-5.3-2.5-5.3-5.5c0-3,2.4-5.5,5.3-5.5C14.5,294.5,16.8,297,16.8,300"
					/>
			</g>
		</g>
		<g>
			<defs>
				<rect id="SVGID_15_" x="6.3" y="313.2" width="10.7" height="11.2"/>
			</defs>
			<clipPath id="SVGID_3_">
				<use xlink:href="#SVGID_15_"  style="overflow:visible;"/>
			</clipPath>
			<g id="g30" class="st2">
				<path id="path32" d="M16.8,318.7c0,3-2.4,5.5-5.3,5.5c-2.9,0-5.3-2.5-5.3-5.5c0-3,2.4-5.5,5.3-5.5
					C14.5,313.2,16.8,315.7,16.8,318.7"/>
			</g>
		</g>
		<path id="path34" d="M35.3,300c0,3-2.4,5.5-5.3,5.5s-5.3-2.5-5.3-5.5c0-3,2.4-5.5,5.3-5.5S35.3,297,35.3,300"/>
		<path id="path36" d="M35.3,281.3c0,3-2.4,5.5-5.3,5.5s-5.3-2.5-5.3-5.5c0-3,2.4-5.5,5.3-5.5S35.3,278.3,35.3,281.3"/>
		<path id="path38" d="M53.9,300c0,3-2.4,5.5-5.3,5.5c-2.9,0-5.3-2.5-5.3-5.5c0-3,2.4-5.5,5.3-5.5C51.5,294.5,53.9,297,53.9,300"/>
		<path id="path40" d="M53.9,281.3c0,3-2.4,5.5-5.3,5.5c-2.9,0-5.3-2.5-5.3-5.5c0-3,2.4-5.5,5.3-5.5
			C51.5,275.9,53.9,278.3,53.9,281.3"/>
		<path id="path42" d="M53.9,318.7c0,3-2.4,5.5-5.3,5.5c-2.9,0-5.3-2.5-5.3-5.5c0-3,2.4-5.5,5.3-5.5
			C51.5,313.2,53.9,315.7,53.9,318.7"/>
		<path id="path44" d="M35.3,318.7c0,3-2.4,5.5-5.3,5.5s-5.3-2.5-5.3-5.5c0-3,2.4-5.5,5.3-5.5S35.3,315.7,35.3,318.7"/>
		<path id="path46" d="M89.6,282.8H76v15.5h13.6c4.7,0,7.9-2.5,7.9-7.7C97.5,285.5,94.3,282.8,89.6,282.8z M94.3,304.4l9.5,19.6h-8
			l-9.2-19H76v19h-6.8V276h20.4c8.1,0,15,4.5,15,14.4C104.5,298,100.6,302.8,94.3,304.4"/>
		<g>
			<defs>
				<rect id="SVGID_17_" x="113.1" y="275.2" width="39.8" height="49.6"/>
			</defs>
			<clipPath id="SVGID_4_">
				<use xlink:href="#SVGID_17_"  style="overflow:visible;"/>
			</clipPath>
			<g id="g48" class="st3">
				<path id="path50" d="M132.8,282.4c-8.1,0-12.6,6.8-12.6,17.6s4.5,17.6,12.6,17.6c8.2,0,12.6-6.8,12.6-17.6
					S141,282.4,132.8,282.4z M132.8,324.8c-12,0-19.7-10.2-19.7-24.8s7.6-24.8,19.7-24.8c12.1,0,19.7,10.2,19.7,24.8
					S144.9,324.8,132.8,324.8"/>
			</g>
		</g>
		<g>
			<defs>
				<rect id="SVGID_19_" x="159.7" y="275.2" width="34" height="49.6"/>
			</defs>
			<clipPath id="SVGID_5_">
				<use xlink:href="#SVGID_19_"  style="overflow:visible;"/>
			</clipPath>
			<g id="g52" class="st4">
				<path id="path54" d="M176.5,324.8c-6.8,0-12.6-3-16.5-7.8l5-5c3.1,3.5,7.7,5.7,12.1,5.7c6.5,0,9.6-2.3,9.6-7
					c0-3.7-2.7-5.6-10.5-8c-9.8-3-14.6-5.6-14.6-14.1c0-8.3,6.8-13.4,15.4-13.4c6.3,0,11.1,2.4,15.2,6.5l-4.9,5.2
					c-2.9-3.1-6.2-4.6-10.8-4.6c-5.5,0-7.8,2.7-7.8,6c0,3.4,2.1,5,10.2,7.5c9.2,2.9,14.9,5.9,14.9,14.5
					C193.7,318.9,188.4,324.8,176.5,324.8"/>
			</g>
		</g>
	</g>
	<path id="path13" d="M49.7,463.9l41.1-5.6l0,39.6l-41.1,0.2L49.7,463.9z M90.8,502.5l0,39.7l-41.1-5.6l0-34.3L90.8,502.5z
		 M95.8,457.5l54.5-7.9v47.8l-54.5,0.4V457.5z M150.3,502.8l0,47.6l-54.5-7.7l-0.1-40L150.3,502.8z"/>
</g>
</svg>
