<?xml version="1.0" encoding="UTF-8" standalone="no"?>
<!DOCTYPE svg PUBLIC "-//W3C//DTD SVG 1.1//EN" "http://www.w3.org/Graphics/SVG/1.1/DTD/svg11.dtd">
<svg width="500px" height="500px" version="1.1" xmlns="http://www.w3.org/2000/svg" xmlns:xlink="http://www.w3.org/1999/xlink" xml:space="preserve" xmlns:serif="http://www.serif.com/" style="fill-rule:evenodd;clip-rule:evenodd;stroke-linejoin:round;stroke-miterlimit:2;">
    <g id="news" transform="matrix(0.416667,0,0,0.416667,0,0)">
        <rect x="0" y="0" width="1200" height="1200" style="fill:none;"/>
        <g transform="matrix(0.814049,-0.379597,0.379597,0.814049,-138.184,348.204)">
            <path d="M790,280L790,860C790,883.023 765.137,897.465 745.137,886.059C639.197,825.645 537.737,779.829 440.787,748.549L426.232,743.998C425.966,766.217 426.603,788.365 428.15,810.451C429.427,828.728 431.013,842.662 433.384,856.943C435.349,868.806 437.193,877.888 442.904,904.588C453.416,953.74 415.994,999.26 362.818,1008.28C359.189,1008.89 355.529,1009.33 351.853,1009.59C298.435,1013.32 250.533,978.767 247.073,929.267C246.815,925.611 246.819,921.946 247.081,918.287C249.018,891.053 249.577,881.803 249.874,869.779C250.233,855.306 249.866,841.291 248.589,823.013C245.975,785.618 240.764,748.404 232.956,711.353C232.17,707.618 232.112,703.904 232.694,700.353C201.46,695.794 169.807,692.314 137.756,689.915C122.104,688.739 109.998,675.696 109.998,659.997L109.998,479.997C109.998,464.048 122.478,450.888 138.404,450.04C234.728,444.911 335.514,425.403 440.784,391.446C546.314,357.403 647.614,311.657 744.714,254.176C764.714,242.34 789.995,256.754 789.995,279.992L790,280ZM293.96,710.43L295.085,716.024C301.585,750.141 306.034,784.407 308.444,818.824C309.846,838.922 310.264,854.82 309.858,871.258C309.53,884.551 308.936,894.332 306.928,922.547C306.866,923.394 306.866,924.238 306.924,925.078C307.889,938.863 325.139,951.308 347.67,949.734C349.385,949.613 351.096,949.41 352.788,949.121C374.515,945.437 387.026,930.219 384.229,917.141C378.315,889.477 376.365,879.879 374.19,866.762C371.502,850.535 369.701,834.735 368.295,814.641C366.264,785.575 365.69,756.407 366.576,727.145C342.685,721 318.498,715.555 294.056,710.793L293.96,710.43ZM919.39,717.098L921.628,719.204L1032.53,834.544C1044.01,846.485 1043.64,865.478 1031.7,876.962C1020.5,887.728 1003.11,888.071 991.512,878.231L989.274,876.129L878.384,760.789C866.9,748.848 867.271,729.855 879.216,718.371C890.411,707.605 907.806,707.258 919.396,717.098L919.39,717.098ZM730,331.638C642.953,379.419 552.68,418.396 459.21,448.548C398.19,468.232 338.45,483.302 280,493.747L280.027,647.187C341.199,657.894 400.927,672.648 459.207,691.449C546.383,719.57 636.637,758.785 729.997,809.059L730,331.638ZM220.02,502.898C203.239,505.015 186.567,506.734 170.004,508.062L170.004,632.432C186.781,634.014 203.457,635.885 220.027,638.042L220.02,502.898ZM1120,530C1136.57,530 1150,543.43 1150,560C1150,576.57 1136.57,590 1120,590L960,590C943.43,590 930,576.57 930,560C930,543.43 943.43,530 960,530L1120,530ZM1031.69,258.38C1043.63,269.864 1044,288.857 1032.52,300.798L921.623,416.138C910.139,428.079 891.146,428.45 879.205,416.97C867.26,405.486 866.889,386.493 878.373,374.552L989.263,259.212C1000.75,247.267 1019.74,246.896 1031.68,258.38L1031.69,258.38Z" style="fill:rgb(255,110,0);fill-rule:nonzero;"/>
        </g>
        <path d="M600,9.909C925.68,9.909 1190.09,274.32 1190.09,600C1190.09,925.68 925.68,1190.09 600,1190.09C274.32,1190.09 9.909,925.68 9.909,600C9.909,274.32 274.32,9.909 600,9.909ZM600,62.709C303.461,62.709 62.709,303.461 62.709,600C62.709,896.539 303.461,1137.29 600,1137.29C896.539,1137.29 1137.29,896.539 1137.29,600C1137.29,303.461 896.539,62.709 600,62.709Z" style="fill:rgb(255,110,0);"/>
    </g>
</svg>
