<?xml version="1.0" encoding="UTF-8" standalone="no"?>
<!DOCTYPE svg PUBLIC "-//W3C//DTD SVG 1.1//EN" "http://www.w3.org/Graphics/SVG/1.1/DTD/svg11.dtd">
<svg width="500px" height="500px" version="1.1" xmlns="http://www.w3.org/2000/svg" xmlns:xlink="http://www.w3.org/1999/xlink" xml:space="preserve" xmlns:serif="http://www.serif.com/" style="fill-rule:evenodd;clip-rule:evenodd;stroke-linejoin:round;stroke-miterlimit:2;">
    <g transform="matrix(1,0,0,1,-1100,-550)">
        <g id="power-reguirements" serif:id="power reguirements" transform="matrix(0.416667,0,0,0.416667,1100,550)">
            <rect x="0" y="0" width="1200" height="1200" style="fill:none;"/>
            <path d="M600,9.909C925.68,9.909 1190.09,274.32 1190.09,600C1190.09,925.68 925.68,1190.09 600,1190.09C274.32,1190.09 9.909,925.68 9.909,600C9.909,274.32 274.32,9.909 600,9.909ZM600,62.709C303.461,62.709 62.709,303.461 62.709,600C62.709,896.539 303.461,1137.29 600,1137.29C896.539,1137.29 1137.29,896.539 1137.29,600C1137.29,303.461 896.539,62.709 600,62.709Z" style="fill:rgb(255,110,0);"/>
            <g transform="matrix(4.18354,0,0,4.18354,-15058.6,-361.192)">
                <path d="M3731.43,311.529L3724.4,311.529C3703.69,311.529 3686.9,294.74 3686.9,274.029L3686.9,188.119C3686.9,185.584 3688.96,183.529 3691.49,183.529L3706.74,183.529L3706.74,129.68C3706.74,128.463 3707.23,127.295 3708.09,126.435C3708.95,125.574 3710.12,125.09 3711.33,125.09L3717.51,125.09C3718.73,125.09 3719.9,125.574 3720.76,126.435C3721.62,127.295 3722.1,128.463 3722.1,129.68L3722.1,183.529L3763.7,183.529L3763.7,129.68C3763.7,128.463 3764.19,127.295 3765.05,126.435C3765.91,125.574 3767.08,125.09 3768.29,125.09L3774.47,125.09C3775.69,125.09 3776.86,125.574 3777.72,126.435C3778.58,127.295 3779.06,128.463 3779.06,129.68L3779.06,183.529L3794.31,183.529C3796.85,183.529 3798.9,185.584 3798.9,188.119L3798.9,274.029C3798.9,294.74 3782.11,311.529 3761.4,311.529L3754.38,311.529L3754.38,364.808L3731.43,364.808L3731.43,311.529Z" style="fill:rgb(255,110,0);"/>
            </g>
            <g transform="matrix(0.493033,0,0,0.493033,303.388,370.754)">
                <path d="M645.94,142.31L645.945,142.316C649.882,142.316 653.867,143.301 657.523,145.41C665.68,150.145 668.961,159.145 668.961,167.957L669.008,489.567L858.528,489.567C871.325,489.567 881.684,499.926 881.684,512.723C881.684,517.223 880.418,521.442 878.168,525.004L577.458,1045.97C573.146,1053.43 565.365,1057.6 557.349,1057.6C553.459,1057.6 549.475,1056.57 545.818,1054.46C538.365,1050.19 534.193,1042.37 534.24,1034.35L534.287,710.35L344.767,710.303C340.549,710.303 336.564,709.178 333.189,707.209L333.049,707.162C321.939,700.74 318.283,686.63 324.658,675.568L625.878,153.888C630.143,146.435 637.924,142.31 645.94,142.31Z" style="fill:white;fill-rule:nonzero;"/>
            </g>
        </g>
    </g>
</svg>
